<svg width="512" height="512" viewBox="0 0 512 512" fill="none" xmlns="http://www.w3.org/2000/svg">
<path d="M496 358.055H483.789C479.691 260.691 401.258 182.262 303.898 178.164V153.945H315.91C318.032 153.945 320.067 153.102 321.567 151.602C323.067 150.102 323.91 148.067 323.91 145.945C323.91 143.824 323.067 141.789 321.567 140.288C320.067 138.788 318.032 137.945 315.91 137.945H275.89C273.768 137.945 271.733 138.788 270.233 140.288C268.733 141.789 267.89 143.824 267.89 145.945C267.89 148.067 268.733 150.102 270.233 151.602C271.733 153.102 273.768 153.945 275.89 153.945H287.898V178.305C248.82 179.979 211.232 193.77 180.344 217.766H146.121C143.999 217.766 141.965 218.608 140.464 220.109C138.964 221.609 138.121 223.644 138.121 225.766C138.121 227.887 138.964 229.922 140.464 231.422C141.965 232.923 143.999 233.766 146.121 233.766H182.973C183.337 233.719 183.697 233.647 184.051 233.548C185.17 233.471 186.245 233.079 187.153 232.419C187.44 232.292 187.719 232.147 187.988 231.984C218.494 207.239 256.619 193.805 295.898 193.961C388.109 193.961 463.613 266.859 467.808 358.055H123.992C124.453 347.943 125.802 337.891 128.023 328.016C127.985 327.423 128.053 326.827 128.223 326.258C128.223 326.006 128.102 325.793 128.079 325.547C127.966 324.006 127.374 322.539 126.386 321.352C125.782 320.542 125.005 319.878 124.111 319.408C123.64 319.133 123.14 318.91 122.622 318.742C122.392 318.668 122.216 318.507 121.977 318.453C121.686 318.43 121.395 318.424 121.104 318.436C120.814 318.359 120.52 318.299 120.223 318.258H16C13.8783 318.258 11.8434 319.101 10.3431 320.601C8.84285 322.101 8 324.136 8 326.258C8 328.38 8.84285 330.414 10.3431 331.915C11.8434 333.415 13.8783 334.258 16 334.258H110.501C109.177 342.13 108.351 350.078 108.03 358.055H95.7969C93.6752 358.055 91.6403 358.898 90.14 360.398C88.6398 361.898 87.7969 363.933 87.7969 366.055C87.7969 368.176 88.6398 370.211 90.14 371.712C91.6403 373.212 93.6752 374.055 95.7969 374.055H496C498.122 374.055 500.157 373.212 501.657 371.712C503.157 370.211 504 368.176 504 366.055C504 363.933 503.157 361.898 501.657 360.398C500.157 358.898 498.122 358.055 496 358.055Z" fill="#F2921D"/>
<path d="M68.6484 284.008H139.902C142.024 284.008 144.059 283.165 145.559 281.665C147.059 280.164 147.902 278.13 147.902 276.008C147.902 273.886 147.059 271.851 145.559 270.351C144.059 268.851 142.024 268.008 139.902 268.008H68.6484C66.5267 268.008 64.4919 268.851 62.9916 270.351C61.4913 271.851 60.6484 273.886 60.6484 276.008C60.6484 278.13 61.4913 280.164 62.9916 281.665C64.4919 283.165 66.5267 284.008 68.6484 284.008Z" fill="#F2921D"/>
</svg>
