<svg width="125" height="49" viewBox="0 0 125 49" fill="none" xmlns="http://www.w3.org/2000/svg">
<path d="M17.5684 17.0029C13.4912 18.8096 10.2441 22.0518 8.43262 26.1289C8.15918 26.7441 8.4375 27.4619 9.05273 27.7354C9.21387 27.8086 9.37988 27.8428 9.5459 27.8428C10.0146 27.8428 10.459 27.5742 10.6592 27.1201C12.2266 23.5947 15.0293 20.792 18.5547 19.2295C19.1699 18.9561 19.4482 18.2383 19.1748 17.623C18.9063 17.0078 18.1836 16.7295 17.5684 17.0029ZM28.0469 11.7051C28.3984 11.1289 28.6133 10.46 28.6133 9.7373C28.6133 7.64746 26.9189 5.95801 24.834 5.95801C22.7441 5.95801 21.0547 7.65234 21.0547 9.7373C21.0547 10.46 21.2695 11.1338 21.6211 11.7051C11.04 13.2627 2.89551 22.3984 2.89551 33.4043V36.0459C2.89551 36.7197 3.44238 37.2666 4.11621 37.2666H45.5566C46.2305 37.2666 46.7773 36.7197 46.7773 36.0459V33.4043C46.7725 22.3984 38.6231 13.2676 28.0469 11.7051ZM44.3359 34.8252H5.33203V33.4043C5.33203 22.6523 14.082 13.9072 24.834 13.9072C35.5859 13.9072 44.3359 22.6523 44.3359 33.4043V34.8252ZM45.5518 39.7178H4.11133C3.4375 39.7178 2.89062 40.2647 2.89062 40.9385C2.89062 41.6123 3.4375 42.1592 4.11133 42.1592H45.5518C46.2256 42.1592 46.7725 41.6123 46.7725 40.9385C46.7725 40.2647 46.2256 39.7178 45.5518 39.7178Z" fill="#F2921D"/>
<path d="M35.764 35.336C34.6253 35.336 33.5987 35.1493 32.684 34.776C31.788 34.384 31.0133 33.7773 30.36 32.956C29.7253 32.1347 29.2307 31.0893 28.876 29.82C28.54 28.532 28.372 27.0013 28.372 25.228C28.372 23.4547 28.54 21.9333 28.876 20.664C29.2307 19.376 29.7253 18.3213 30.36 17.5C31.0133 16.6787 31.788 16.0813 32.684 15.708C33.5987 15.316 34.6253 15.12 35.764 15.12C37.4253 15.12 38.7507 15.484 39.74 16.212C40.748 16.9213 41.5507 17.9947 42.148 19.432L39.628 20.832C39.292 19.7307 38.816 18.9373 38.2 18.452C37.6027 17.9667 36.7907 17.724 35.764 17.724C34.4387 17.724 33.4027 18.1813 32.656 19.096C31.928 20.0107 31.564 21.2707 31.564 22.876V27.58C31.564 29.1853 31.928 30.4453 32.656 31.36C33.4027 32.2747 34.4387 32.732 35.764 32.732C36.8093 32.732 37.6493 32.4707 38.284 31.948C38.9373 31.4253 39.4413 30.5853 39.796 29.428L42.26 30.884C41.644 32.3213 40.8227 33.4227 39.796 34.188C38.7693 34.9533 37.4253 35.336 35.764 35.336ZM59.5988 26.348H51.8148V35H48.8468V15.456H51.8148V23.772H59.5988V15.456H62.5668V35H59.5988V26.348ZM81.4543 35L79.9423 29.596H73.3623L71.8503 35H68.9383L74.7903 15.456H78.5703L84.4503 35H81.4543ZM77.4223 21L76.8063 18.144H76.4423L75.8263 21L74.0903 27.16H79.2423L77.4223 21ZM93.4635 35L87.7235 15.456H90.8315L94.3035 27.748L95.1155 32.312H95.4795L96.2915 27.748L99.7355 15.456H102.787L97.0755 35H93.4635ZM115.188 35.336C114.012 35.336 112.957 35.1493 112.024 34.776C111.091 34.384 110.288 33.7773 109.616 32.956C108.963 32.1347 108.459 31.0893 108.104 29.82C107.768 28.532 107.6 27.0013 107.6 25.228C107.6 23.4547 107.768 21.9333 108.104 20.664C108.459 19.376 108.963 18.3213 109.616 17.5C110.288 16.6787 111.091 16.0813 112.024 15.708C112.957 15.316 114.012 15.12 115.188 15.12C116.364 15.12 117.419 15.316 118.352 15.708C119.285 16.0813 120.079 16.6787 120.732 17.5C121.404 18.3213 121.908 19.376 122.244 20.664C122.599 21.9333 122.776 23.4547 122.776 25.228C122.776 27.0013 122.599 28.532 122.244 29.82C121.908 31.0893 121.404 32.1347 120.732 32.956C120.079 33.7773 119.285 34.384 118.352 34.776C117.419 35.1493 116.364 35.336 115.188 35.336ZM115.188 32.704C116.588 32.704 117.671 32.256 118.436 31.36C119.201 30.4453 119.584 29.1853 119.584 27.58V22.876C119.584 21.2707 119.201 20.02 118.436 19.124C117.671 18.2093 116.588 17.752 115.188 17.752C113.788 17.752 112.705 18.2093 111.94 19.124C111.175 20.02 110.792 21.2707 110.792 22.876V27.58C110.792 29.1853 111.175 30.4453 111.94 31.36C112.705 32.256 113.788 32.704 115.188 32.704Z" fill="black"/>
</svg>
