<svg width="173" height="60" viewBox="0 0 173 60" fill="none" xmlns="http://www.w3.org/2000/svg">
<path d="M21.082 21.6035C16.1895 23.7715 12.293 27.6621 10.1191 32.5547C9.79102 33.293 10.125 34.1543 10.8633 34.4824C11.0566 34.5703 11.2559 34.6113 11.4551 34.6113C12.0176 34.6113 12.5508 34.2891 12.791 33.7441C14.6719 29.5137 18.0352 26.1504 22.2656 24.2754C23.0039 23.9473 23.3379 23.0859 23.0098 22.3477C22.6875 21.6094 21.8203 21.2754 21.082 21.6035ZM33.6563 15.2461C34.0781 14.5547 34.3359 13.752 34.3359 12.8848C34.3359 10.377 32.3027 8.34961 29.8008 8.34961C27.293 8.34961 25.2656 10.3828 25.2656 12.8848C25.2656 13.752 25.5234 14.5605 25.9453 15.2461C13.248 17.1152 3.47461 28.0781 3.47461 41.2852V44.4551C3.47461 45.2637 4.13086 45.9199 4.93945 45.9199H54.668C55.4766 45.9199 56.1328 45.2637 56.1328 44.4551V41.2852C56.127 28.0781 46.3477 17.1211 33.6563 15.2461ZM53.2031 42.9902H6.39844V41.2852C6.39844 28.3828 16.8984 17.8887 29.8008 17.8887C42.7031 17.8887 53.2031 28.3828 53.2031 41.2852V42.9902ZM54.6621 48.8613H4.93359C4.125 48.8613 3.46875 49.5176 3.46875 50.3262C3.46875 51.1348 4.125 51.791 4.93359 51.791H54.6621C55.4707 51.791 56.127 51.1348 56.127 50.3262C56.127 49.5176 55.4707 48.8613 54.6621 48.8613Z" fill="#F2921D"/>
<path d="M71.016 43.384C69.7147 43.384 68.5413 43.1707 67.496 42.744C66.472 42.296 65.5867 41.6027 64.84 40.664C64.1147 39.7253 63.5493 38.5307 63.144 37.08C62.76 35.608 62.568 33.8587 62.568 31.832C62.568 29.8053 62.76 28.0667 63.144 26.616C63.5493 25.144 64.1147 23.9387 64.84 23C65.5867 22.0613 66.472 21.3787 67.496 20.952C68.5413 20.504 69.7147 20.28 71.016 20.28C72.9147 20.28 74.4293 20.696 75.56 21.528C76.712 22.3387 77.6293 23.5653 78.312 25.208L75.432 26.808C75.048 25.5493 74.504 24.6427 73.8 24.088C73.1173 23.5333 72.1893 23.256 71.016 23.256C69.5013 23.256 68.3173 23.7787 67.464 24.824C66.632 25.8693 66.216 27.3093 66.216 29.144V34.52C66.216 36.3547 66.632 37.7947 67.464 38.84C68.3173 39.8853 69.5013 40.408 71.016 40.408C72.2107 40.408 73.1707 40.1093 73.896 39.512C74.6427 38.9147 75.2187 37.9547 75.624 36.632L78.44 38.296C77.736 39.9387 76.7973 41.1973 75.624 42.072C74.4507 42.9467 72.9147 43.384 71.016 43.384ZM98.2558 33.112H89.3598V43H85.9678V20.664H89.3598V30.168H98.2558V20.664H101.648V43H98.2558V33.112ZM123.234 43L121.506 36.824H113.985L112.257 43H108.929L115.617 20.664H119.938L126.658 43H123.234ZM118.625 27L117.922 23.736H117.505L116.802 27L114.818 34.04H120.706L118.625 27ZM136.958 43L130.398 20.664H133.95L137.918 34.712L138.846 39.928H139.262L140.19 34.712L144.126 20.664H147.614L141.086 43H136.958ZM161.786 43.384C160.442 43.384 159.237 43.1707 158.17 42.744C157.104 42.296 156.186 41.6027 155.418 40.664C154.672 39.7253 154.096 38.5307 153.69 37.08C153.306 35.608 153.114 33.8587 153.114 31.832C153.114 29.8053 153.306 28.0667 153.69 26.616C154.096 25.144 154.672 23.9387 155.418 23C156.186 22.0613 157.104 21.3787 158.17 20.952C159.237 20.504 160.442 20.28 161.786 20.28C163.13 20.28 164.336 20.504 165.402 20.952C166.469 21.3787 167.376 22.0613 168.122 23C168.89 23.9387 169.466 25.144 169.85 26.616C170.256 28.0667 170.458 29.8053 170.458 31.832C170.458 33.8587 170.256 35.608 169.85 37.08C169.466 38.5307 168.89 39.7253 168.122 40.664C167.376 41.6027 166.469 42.296 165.402 42.744C164.336 43.1707 163.13 43.384 161.786 43.384ZM161.786 40.376C163.386 40.376 164.624 39.864 165.498 38.84C166.373 37.7947 166.81 36.3547 166.81 34.52V29.144C166.81 27.3093 166.373 25.88 165.498 24.856C164.624 23.8107 163.386 23.288 161.786 23.288C160.186 23.288 158.949 23.8107 158.074 24.856C157.2 25.88 156.762 27.3093 156.762 29.144V34.52C156.762 36.3547 157.2 37.7947 158.074 38.84C158.949 39.864 160.186 40.376 161.786 40.376Z" fill="white"/>
</svg>
