<svg width="233" height="65" viewBox="0 0 233 65" fill="none" xmlns="http://www.w3.org/2000/svg">
<g clip-path="url(#clip0_216_139)">
<path d="M53.3488 64.3066H6.63378C2.97736 64.3066 0 61.285 0 57.5742V10.147C0 6.43624 2.97736 3.41461 6.63378 3.41461H53.3488C57.0052 3.41461 59.9826 6.43624 59.9826 10.147V57.5565C60 61.285 57.0226 64.3066 53.3488 64.3066ZM6.63378 7.14305C4.9971 7.14305 3.67383 8.486 3.67383 10.147V57.5565C3.67383 59.2175 4.9971 60.5605 6.63378 60.5605H53.3488C54.9855 60.5605 56.3088 59.2175 56.3088 57.5565V10.147C56.3088 8.486 54.9855 7.14305 53.3488 7.14305H6.63378Z" fill="#F2921D"/>
<path d="M43.3894 13.4867C42.6058 13.4867 41.979 12.8506 41.979 12.0554V2.12466C41.979 1.32949 42.6058 0.693359 43.3894 0.693359C44.1729 0.693359 44.7997 1.32949 44.7997 2.12466V12.0377C44.7997 12.8329 44.1729 13.4867 43.3894 13.4867ZM16.4538 13.4867C15.6703 13.4867 15.0435 12.8506 15.0435 12.0554V2.12466C15.0435 1.32949 15.6703 0.693359 16.4538 0.693359C17.2373 0.693359 17.8641 1.32949 17.8641 2.12466V12.0377C17.8815 12.8329 17.2373 13.4867 16.4538 13.4867ZM31.6888 45.5407C25.8386 45.5407 21.0852 40.7167 21.0852 34.7795C21.0852 28.8422 25.8386 24.0182 31.6888 24.0182C34.3354 24.0182 36.8601 25.0078 38.8101 26.8101C39.0539 27.0222 39.0713 27.4109 38.845 27.6406C38.636 27.888 38.253 27.9057 38.0266 27.676C36.2855 26.068 34.0394 25.1845 31.6888 25.1845C26.4828 25.1845 22.2518 29.4784 22.2518 34.7618C22.2518 40.0452 26.4828 44.3391 31.6888 44.3391C34.0394 44.3391 36.2855 43.4556 38.0266 41.8476C38.2704 41.6355 38.636 41.6532 38.845 41.8829C39.0539 42.1303 39.0365 42.5014 38.8101 42.7134C36.8601 44.5512 34.3354 45.5407 31.6888 45.5407Z" fill="#F2921D"/>
</g>
<path d="M109.239 28H106.068C105.881 27.0881 105.553 26.2869 105.084 25.5966C104.624 24.9062 104.061 24.3267 103.396 23.858C102.74 23.3807 102.011 23.0227 101.21 22.7841C100.409 22.5455 99.5739 22.4261 98.7045 22.4261C97.1193 22.4261 95.6832 22.8267 94.3963 23.6278C93.1179 24.429 92.0994 25.6094 91.3409 27.169C90.5909 28.7287 90.2159 30.642 90.2159 32.9091C90.2159 35.1761 90.5909 37.0895 91.3409 38.6491C92.0994 40.2088 93.1179 41.3892 94.3963 42.1903C95.6832 42.9915 97.1193 43.392 98.7045 43.392C99.5739 43.392 100.409 43.2727 101.21 43.0341C102.011 42.7955 102.74 42.4418 103.396 41.973C104.061 41.4957 104.624 40.9119 105.084 40.2216C105.553 39.5227 105.881 38.7216 106.068 37.8182H109.239C109 39.1562 108.565 40.3537 107.935 41.4105C107.304 42.4673 106.52 43.3665 105.582 44.108C104.645 44.8409 103.592 45.3991 102.425 45.7827C101.266 46.1662 100.026 46.358 98.7045 46.358C96.4716 46.358 94.4858 45.8125 92.7472 44.7216C91.0085 43.6307 89.6406 42.0795 88.6435 40.0682C87.6463 38.0568 87.1477 35.6705 87.1477 32.9091C87.1477 30.1477 87.6463 27.7614 88.6435 25.75C89.6406 23.7386 91.0085 22.1875 92.7472 21.0966C94.4858 20.0057 96.4716 19.4602 98.7045 19.4602C100.026 19.4602 101.266 19.652 102.425 20.0355C103.592 20.419 104.645 20.9815 105.582 21.723C106.52 22.456 107.304 23.3509 107.935 24.4077C108.565 25.456 109 26.6534 109.239 28ZM119.731 46.4602C118.487 46.4602 117.358 46.2259 116.343 45.7571C115.329 45.2798 114.524 44.5938 113.927 43.6989C113.331 42.7955 113.032 41.7045 113.032 40.4261C113.032 39.3011 113.254 38.3892 113.697 37.6903C114.14 36.983 114.733 36.429 115.474 36.0284C116.216 35.6278 117.034 35.3295 117.929 35.1335C118.832 34.929 119.74 34.767 120.652 34.6477C121.845 34.4943 122.812 34.3793 123.554 34.3026C124.304 34.2173 124.849 34.0767 125.19 33.8807C125.539 33.6847 125.714 33.3437 125.714 32.858V32.7557C125.714 31.4943 125.369 30.5142 124.679 29.8153C123.997 29.1165 122.961 28.767 121.572 28.767C120.132 28.767 119.002 29.0824 118.184 29.7131C117.366 30.3437 116.791 31.017 116.458 31.733L113.595 30.7102C114.106 29.517 114.788 28.5881 115.64 27.9233C116.501 27.25 117.439 26.7812 118.453 26.517C119.475 26.2443 120.481 26.108 121.47 26.108C122.1 26.108 122.825 26.1847 123.643 26.3381C124.47 26.483 125.267 26.7855 126.034 27.2457C126.809 27.706 127.453 28.4006 127.964 29.3295C128.475 30.2585 128.731 31.5028 128.731 33.0625V46H125.714V43.3409H125.561C125.356 43.767 125.015 44.223 124.538 44.7088C124.061 45.1946 123.426 45.608 122.633 45.9489C121.841 46.2898 120.873 46.4602 119.731 46.4602ZM120.191 43.75C121.385 43.75 122.39 43.5156 123.208 43.0469C124.035 42.5781 124.657 41.973 125.075 41.2315C125.501 40.4901 125.714 39.7102 125.714 38.892V36.1307C125.586 36.2841 125.305 36.4247 124.87 36.5526C124.444 36.6719 123.95 36.7784 123.387 36.8722C122.833 36.9574 122.292 37.0341 121.764 37.1023C121.244 37.1619 120.822 37.2131 120.498 37.2557C119.714 37.358 118.981 37.5241 118.299 37.7543C117.626 37.9759 117.081 38.3125 116.663 38.7642C116.254 39.2074 116.049 39.8125 116.049 40.5795C116.049 41.6278 116.437 42.4205 117.213 42.9574C117.997 43.4858 118.99 43.75 120.191 43.75ZM137.255 19.8182V46H134.238V19.8182H137.255ZM151.014 46.4091C149.122 46.4091 147.49 45.9915 146.118 45.1562C144.754 44.3125 143.701 43.1364 142.96 41.6278C142.227 40.1108 141.86 38.3466 141.86 36.3352C141.86 34.3239 142.227 32.5511 142.96 31.017C143.701 29.4744 144.733 28.2727 146.054 27.4119C147.383 26.5426 148.934 26.108 150.707 26.108C151.73 26.108 152.74 26.2784 153.737 26.6193C154.734 26.9602 155.642 27.5142 156.46 28.2812C157.278 29.0398 157.93 30.0455 158.416 31.2983C158.902 32.5511 159.145 34.0937 159.145 35.9261V37.2045H144.008V34.5966H156.076C156.076 33.4886 155.855 32.5 155.412 31.6307C154.977 30.7614 154.355 30.0753 153.545 29.5724C152.744 29.0696 151.798 28.8182 150.707 28.8182C149.505 28.8182 148.466 29.1165 147.588 29.7131C146.718 30.3011 146.049 31.0682 145.581 32.0142C145.112 32.9602 144.877 33.9744 144.877 35.0568V36.7955C144.877 38.2784 145.133 39.5355 145.645 40.5668C146.164 41.5895 146.885 42.3693 147.805 42.9062C148.725 43.4347 149.795 43.6989 151.014 43.6989C151.806 43.6989 152.522 43.5881 153.162 43.3665C153.809 43.1364 154.368 42.7955 154.836 42.3438C155.305 41.8835 155.667 41.3125 155.923 40.6307L158.838 41.4489C158.531 42.4375 158.015 43.3068 157.291 44.0568C156.566 44.7983 155.672 45.3778 154.606 45.7955C153.541 46.2045 152.343 46.4091 151.014 46.4091ZM166.751 34.1875V46H163.734V26.3636H166.649V29.4318H166.904C167.365 28.4347 168.064 27.6335 169.001 27.0284C169.939 26.4148 171.149 26.108 172.632 26.108C173.961 26.108 175.125 26.3807 176.122 26.9261C177.119 27.4631 177.895 28.2812 178.449 29.3807C179.002 30.4716 179.279 31.8523 179.279 33.5227V46H176.262V33.7273C176.262 32.1847 175.862 30.983 175.061 30.1222C174.26 29.2528 173.16 28.8182 171.762 28.8182C170.799 28.8182 169.939 29.027 169.18 29.4446C168.43 29.8622 167.838 30.4716 167.403 31.2727C166.968 32.0739 166.751 33.0455 166.751 34.1875ZM192.207 46.4091C190.571 46.4091 189.126 45.9957 187.874 45.169C186.621 44.3338 185.641 43.1577 184.933 41.6406C184.226 40.1151 183.872 38.3125 183.872 36.233C183.872 34.1705 184.226 32.3807 184.933 30.8636C185.641 29.3466 186.625 28.1747 187.886 27.348C189.148 26.5213 190.605 26.108 192.259 26.108C193.537 26.108 194.547 26.321 195.288 26.7472C196.038 27.1648 196.609 27.642 197.001 28.179C197.402 28.7074 197.713 29.142 197.935 29.483H198.19V19.8182H201.207V46H198.293V42.983H197.935C197.713 43.3409 197.398 43.7926 196.989 44.3381C196.58 44.875 195.996 45.3565 195.237 45.7827C194.479 46.2003 193.469 46.4091 192.207 46.4091ZM192.616 43.6989C193.827 43.6989 194.849 43.3835 195.685 42.7528C196.52 42.1136 197.155 41.2315 197.589 40.1065C198.024 38.973 198.241 37.6648 198.241 36.1818C198.241 34.7159 198.028 33.4332 197.602 32.3338C197.176 31.2259 196.545 30.3651 195.71 29.7514C194.875 29.1293 193.844 28.8182 192.616 28.8182C191.338 28.8182 190.273 29.1463 189.42 29.8026C188.577 30.4503 187.942 31.3324 187.516 32.4489C187.098 33.5568 186.889 34.8011 186.889 36.1818C186.889 37.5795 187.102 38.8494 187.528 39.9915C187.963 41.125 188.602 42.0284 189.446 42.7017C190.298 43.3665 191.355 43.6989 192.616 43.6989ZM210.169 19.8182V46H207.152V19.8182H210.169ZM217.638 53.3636C217.127 53.3636 216.671 53.321 216.27 53.2358C215.87 53.1591 215.593 53.0824 215.439 53.0057L216.206 50.3466C216.939 50.5341 217.587 50.6023 218.15 50.5511C218.712 50.5 219.211 50.2486 219.645 49.7969C220.088 49.3537 220.493 48.6335 220.86 47.6364L221.422 46.1023L214.161 26.3636H217.434L222.854 42.0114H223.059L228.479 26.3636H231.752L223.417 48.8636C223.042 49.8778 222.577 50.7173 222.023 51.3821C221.469 52.0554 220.826 52.554 220.093 52.8778C219.368 53.2017 218.55 53.3636 217.638 53.3636Z" fill="#F2921D"/>
<defs>
<clipPath id="clip0_216_139">
<rect width="60" height="65" fill="white"/>
</clipPath>
</defs>
</svg>
