<svg width="201" height="46" viewBox="0 0 201 46" fill="none" xmlns="http://www.w3.org/2000/svg">
<path d="M22.6227 37.0141C21.3247 35.35 19.827 32.5876 19.2279 30.6905C14.3354 30.6905 8.37791 26.7299 8.37791 18.9086C8.37791 12.3187 12.2719 7.19324 19.2279 7.19324C25.8511 7.19324 30.1112 12.8179 30.1112 19.0417C30.1112 25.3986 26.1839 29.3592 23.3216 29.3592C23.3216 29.3592 25.485 34.7842 30.211 38.6782C32.2745 40.3756 37.4 44.0699 42.1926 45.1682L43.058 44.0034C36.9673 41.5738 32.4742 37.8129 32.4742 34.3515C32.4742 32.3213 33.0067 31.2896 34.1051 29.692C36.3682 26.4636 37.4333 22.8026 37.4333 19.2081C37.4333 8.49125 29.2126 0.436951 19.1281 0.436951C9.40966 0.436951 0.989258 8.49124 0.989258 18.9419C0.989258 29.8251 10.6744 39.244 22.6227 37.0141ZM64.4251 11.1205V34.1185H57.9351V31.2896H57.8353C56.0047 33.4196 53.3422 34.4847 50.613 34.4847C45.3877 34.4847 41.7267 31.9885 41.7267 24.9659V11.1205H48.1834V23.3351C48.1834 27.562 49.5147 28.9931 52.5767 28.9931C55.4057 28.9931 57.9351 26.7299 57.9351 22.3034V11.1205H64.4251ZM91.1508 10.8543V33.4862H85.4262V30.757H85.2931C83.7621 32.754 81.4656 33.8523 78.5368 33.8523C72.313 33.8523 67.7866 29.2261 67.7866 22.2035C67.7866 15.3474 72.3463 10.4549 78.4369 10.4549C81.1328 10.4549 83.4293 11.4201 85.0268 13.3504H85.16V10.821L91.1508 10.8543ZM85.3929 22.2368C85.3929 18.609 82.9966 15.8799 79.7017 15.8799C76.4733 15.8799 73.8773 18.3428 73.8773 22.2368C73.8773 25.8978 76.2736 28.394 79.6684 28.394C82.7969 28.394 85.3929 25.9644 85.3929 22.2368ZM118.542 20.1733V33.819H112.152V21.7376C112.152 17.3443 110.554 16.013 107.592 16.013C104.397 16.013 102.2 18.1764 102.2 22.2701V33.819H95.8435V10.8543H102.234V13.8164H102.334C104.264 11.5865 106.993 10.4549 109.922 10.4549C115.014 10.4882 118.542 13.1175 118.542 20.1733ZM146.599 0.470235V33.4862H140.741V30.7238H140.608C139.011 32.7207 136.614 33.8523 133.552 33.8523C127.195 33.8523 122.536 29.1928 122.536 22.1702C122.536 15.2808 127.195 10.3883 133.353 10.3883C136.148 10.3883 138.578 11.3535 140.275 13.3172H140.408V0.470235H146.599ZM140.741 22.2035C140.741 18.5758 138.212 15.8133 134.684 15.8133C131.389 15.8133 128.826 18.2762 128.826 22.2035C128.826 25.8646 131.289 28.394 134.684 28.394C138.079 28.394 140.741 25.9311 140.741 22.2035ZM149.927 22.1369C149.927 15.3807 154.72 10.4549 161.909 10.4549C168.965 10.4549 173.957 15.181 173.957 22.1369C173.957 29.0929 168.965 33.819 161.909 33.819C154.72 33.819 149.927 28.8932 149.927 22.1369ZM167.8 22.1369C167.8 18.4426 165.304 15.8799 161.909 15.8799C158.381 15.8799 156.018 18.5758 156.018 22.1369C156.018 25.6649 158.481 28.394 161.909 28.394C165.204 28.394 167.8 25.798 167.8 22.1369ZM176.653 22.1369C176.653 15.3807 181.445 10.4549 188.634 10.4549C195.69 10.4549 200.682 15.181 200.682 22.1369C200.682 29.0929 195.69 33.819 188.634 33.819C181.445 33.819 176.653 28.8932 176.653 22.1369ZM194.492 22.1369C194.492 18.4426 191.996 15.8799 188.601 15.8799C185.073 15.8799 182.71 18.5758 182.71 22.1369C182.71 25.6649 185.173 28.394 188.601 28.394C191.896 28.394 194.492 25.798 194.492 22.1369Z" fill="#F2921D"/>
</svg>
