<svg width="50" height="50" viewBox="0 0 50 50" fill="none" xmlns="http://www.w3.org/2000/svg">
<g clip-path="url(#clip0_51_91)">
<path d="M25 0C11.1927 0 0 11.1937 0 25C0 38.8073 11.1927 50 25 50C38.8073 50 50 38.8073 50 25C50 11.1937 38.8073 0 25 0ZM25 45.8333C13.4937 45.8333 4.16667 36.5062 4.16667 25C4.16667 13.4937 13.4937 4.16667 25 4.16667C36.5062 4.16667 45.8333 13.4937 45.8333 25C45.8333 36.5062 36.5062 45.8333 25 45.8333Z" fill="white"/>
<path d="M26.5625 7.2915H23.4375V10.4165H26.5625V7.2915Z" fill="white"/>
<path d="M10.4167 23.4375H7.29167V26.5625H10.4167V23.4375Z" fill="white"/>
<path d="M38.7098 13.4986L36.5004 11.2886L34.2904 13.4979L36.4998 15.7079L38.7098 13.4986Z" fill="white"/>
<path d="M11.4603 36.3322L13.6694 38.5425L15.8797 36.3334L13.6706 34.1231L11.4603 36.3322Z" fill="white"/>
<path d="M15.7932 13.5832L13.5835 11.3735L11.3739 13.5832L13.5835 15.7929L15.7932 13.5832Z" fill="white"/>
<path d="M34.2066 36.4178L36.4162 38.6274L38.6259 36.4178L36.4162 34.2081L34.2066 36.4178Z" fill="white"/>
<path d="M39.5833 23.4375H23.4375V25V26.5625V39.5833V42.7083H26.5625V39.5833V26.5625H39.5833H42.7083V23.4375H39.5833Z" fill="white"/>
</g>
<defs>
<clipPath id="clip0_51_91">
<rect width="50" height="50" fill="white"/>
</clipPath>
</defs>
</svg>
