<?xml version="1.0" ?><svg viewBox="0 0 512 512" xmlns="http://www.w3.org/2000/svg"><title/><g id="Delivering"><path d="M496,358.0547H483.7891c-4.0977-97.3633-82.5313-175.793-179.8907-179.8906V153.9453H315.91a8,8,0,0,0,0-16h-40.02a8,8,0,0,0,0,16h12.0078v24.3594a188.4675,188.4675,0,0,0-107.5537,39.4609H146.1211a8,8,0,0,0,0,16h36.8516a7.5515,7.5515,0,0,0,1.0781-.2177,5.9714,5.9714,0,0,0,3.102-1.129,7.5267,7.5267,0,0,0,.8355-.4345,170.2233,170.2233,0,0,1,107.91-38.0235c92.211,0,167.7149,72.8985,171.91,164.0938H123.9922a172.7417,172.7417,0,0,1,4.0312-30.0391,5.0313,5.0313,0,0,1,.1993-1.7578c0-.2519-.1206-.4648-.1436-.7109a7.4134,7.4134,0,0,0-1.6929-4.1953,6.767,6.767,0,0,0-2.2754-1.9434,7.59,7.59,0,0,0-1.4892-.666c-.23-.0742-.4053-.2354-.645-.2891a7.2545,7.2545,0,0,0-.8731-.0176,7.4318,7.4318,0,0,0-.8808-.1777H16a8,8,0,0,0,0,16h94.5005a189.5323,189.5323,0,0,0-2.4707,23.7969H95.7969a8,8,0,0,0,0,16H496a8,8,0,0,0,0-16Z"/><path d="M68.6484,284.0078h71.2539a8,8,0,0,0,0-16H68.6484a8,8,0,1,0,0,16Z"/></g></svg>