<svg width="50" height="50" viewBox="0 0 50 50" fill="none" xmlns="http://www.w3.org/2000/svg">
<path d="M49.9992 17.3232C49.9992 17.3232 49.9992 17.3159 49.9992 17.3117C50.0003 17.291 50.0003 17.2703 49.9992 17.2496C49.9992 17.2496 49.9992 17.2412 49.9992 17.237C49.9959 17.2115 49.991 17.1862 49.9846 17.1613V17.1518C49.9791 17.1303 49.9722 17.1092 49.9638 17.0887L49.9576 17.074C49.9493 17.054 49.9399 17.0351 49.9295 17.0151C49.9282 17.0114 49.9264 17.0079 49.9243 17.0046C49.9115 16.9818 49.8976 16.9597 49.8826 16.9383C49.867 16.9184 49.8504 16.8994 49.8327 16.8805L49.8202 16.8679C49.807 16.8544 49.7931 16.8418 49.7785 16.83L49.7598 16.8142C49.7462 16.8035 49.732 16.7936 49.7171 16.7848L49.7015 16.7732L41.2825 11.613V0.642535C41.2822 0.472028 41.215 0.308599 41.0955 0.18813C40.9761 0.0676617 40.8142 -2.2762e-07 40.6454 0H9.3546C9.1858 -2.2762e-07 9.02391 0.0676617 8.90445 0.18813C8.785 0.308599 8.71775 0.472028 8.71748 0.642535V11.6119L0.298515 16.7722L0.278735 16.7858L0.242298 16.8111L0.219395 16.83L0.181917 16.8647L0.166302 16.8805C0.149645 16.8984 0.132988 16.9173 0.117372 16.9373C0.102387 16.9586 0.0884883 16.9807 0.0757303 17.0035L0.069484 17.014C0.0601146 17.034 0.0507451 17.053 0.0424167 17.0729L0.0361705 17.0877C0.0278326 17.1082 0.0208764 17.1293 0.0153494 17.1508V17.1602C0.00899211 17.1851 0.00412515 17.2104 0.000774828 17.2359C0.000774828 17.2359 0.000774828 17.2444 0.000774828 17.2486C-0.000258276 17.2692 -0.000258276 17.2899 0.000774828 17.3106C0.000774828 17.3106 0.000774828 17.318 0.000774828 17.3222V49.3564C0.000774828 49.3564 0.000774828 49.3648 0.000774828 49.368C0.000774828 49.3711 0.000774828 49.3953 0.000774828 49.4079C0.000262191 49.4156 0.000262191 49.4234 0.000774828 49.4311C0.000774828 49.4447 0.000774873 49.4595 0.00702116 49.4742V49.4921C0.00702116 49.5078 0.0143085 49.5226 0.0184727 49.5373C0.0226369 49.552 0.0184726 49.5478 0.0236778 49.552C0.0281352 49.5678 0.0337018 49.5833 0.0403348 49.5983V49.6109C0.0476221 49.6256 0.0538683 49.6403 0.0621967 49.6551L0.068443 49.6666C0.0759894 49.6815 0.0843302 49.6959 0.0934281 49.7098L0.100716 49.7203L0.113208 49.7392L0.129865 49.7602L0.138193 49.7697C0.148479 49.783 0.159606 49.7957 0.171507 49.8076L0.179835 49.8149C0.191311 49.8276 0.20385 49.8392 0.217313 49.8496L0.225641 49.857C0.238134 49.8675 0.251668 49.877 0.265201 49.8864L0.276653 49.8948L0.322459 49.9232L0.340157 49.9327L0.376594 49.9506L0.399496 49.96L0.43281 49.9716L0.459877 49.98L0.49215 49.9884L0.519217 49.9937L0.555654 50H0.579598H0.622281H49.3611C49.403 50 49.4449 49.9957 49.486 49.9874H49.4912L49.5412 49.9748L49.5568 49.9695C49.572 49.9648 49.587 49.9592 49.6015 49.9527L49.6172 49.9464C49.6326 49.9401 49.6475 49.9327 49.6619 49.9243L49.6723 49.919C49.7218 49.8906 49.7671 49.8552 49.8066 49.8139L49.8129 49.8076C49.8243 49.797 49.8337 49.7855 49.8441 49.7739L49.8597 49.755C49.8649 49.7493 49.8698 49.7433 49.8743 49.7371L49.8868 49.7182L49.8941 49.7076C49.9032 49.6937 49.9115 49.6794 49.9191 49.6645L49.9253 49.654L49.9472 49.6088V49.5962C49.9538 49.5812 49.9594 49.5657 49.9638 49.5499C49.9638 49.5499 49.9638 49.5404 49.969 49.5352C49.9742 49.5299 49.9774 49.5057 49.9805 49.49V49.4721C49.9805 49.4574 49.9857 49.4426 49.9867 49.429C49.9872 49.4213 49.9872 49.4135 49.9867 49.4058C49.9867 49.3932 49.9867 49.3795 49.9867 49.3659C49.9867 49.3522 49.9867 49.3585 49.9867 49.3543L49.9992 17.3232ZM1.26565 18.6041L20.9352 33.4129L1.26565 48.0829V18.6041ZM22.3812 33.9387C23.1406 33.3794 24.0561 33.0781 24.9958 33.0781C25.9356 33.0781 26.8511 33.3794 27.6104 33.9387L47.4258 48.7128H2.56488L22.3812 33.9387ZM29.0554 33.4129L48.725 18.6041V48.0829L29.0554 33.4129ZM48.2211 17.3758L41.2711 22.6097V13.1168L48.2211 17.3758ZM9.99172 1.28612H39.9989V23.5698L27.9685 32.6295C27.0721 32.0807 26.044 31.7906 24.9958 31.7906C23.9477 31.7906 22.9195 32.0807 22.0231 32.6295L9.95528 23.5435C9.97917 23.476 9.99149 23.4049 9.99172 23.3332V1.28612ZM8.71748 22.6097L1.76743 17.3769L8.71748 13.1168V22.6097Z" fill="white"/>
</svg>
