<svg width="34" height="50" viewBox="0 0 34 50" fill="none" xmlns="http://www.w3.org/2000/svg">
<path d="M29.0194 6.16211C25.8314 2.21658 21.5076 -4.15729e-08 16.9992 0C12.4907 4.15729e-08 8.16691 2.21658 4.97894 6.16211C1.79098 10.1076 3.35907e-08 15.4589 0 21.0387C-3.35907e-08 26.6186 1.79098 31.9699 4.97894 35.9154L11.3135 43.7553C11.4576 43.9335 11.6286 44.075 11.8168 44.1715C12.005 44.2679 12.2067 44.3176 12.4105 44.3176C12.6142 44.3176 12.8159 44.2679 13.0041 44.1715C13.1924 44.075 13.3634 43.9335 13.5074 43.7553C13.6515 43.577 13.7658 43.3653 13.8437 43.1324C13.9217 42.8994 13.9618 42.6498 13.9618 42.3976C13.9618 42.1455 13.9217 41.8958 13.8437 41.6629C13.7658 41.4299 13.6515 41.2183 13.5074 41.04L7.17287 33.2001C5.22647 30.7942 3.90041 27.7278 3.36247 24.3889C2.82454 21.05 3.09889 17.5886 4.15083 14.4428C5.20277 11.2969 6.98502 8.60788 9.27209 6.71593C11.5592 4.82398 14.2483 3.81412 16.9992 3.81412C19.7501 3.81412 22.4392 4.82398 24.7263 6.71593C27.0133 8.60788 28.7956 11.2969 29.8475 14.4428C30.8995 17.5886 31.1738 21.05 30.6359 24.3889C30.0979 27.7278 28.7719 30.7942 26.8255 33.2001L15.9022 46.7191C15.7574 46.8969 15.6425 47.1084 15.564 47.3414C15.4856 47.5744 15.4452 47.8243 15.4452 48.0767C15.4452 48.3292 15.4856 48.5791 15.564 48.8121C15.6425 49.0451 15.7574 49.2566 15.9022 49.4344C16.0458 49.6136 16.2167 49.7559 16.405 49.8529C16.5933 49.95 16.7952 50 16.9992 50C17.2031 50 17.4051 49.95 17.5934 49.8529C17.7816 49.7559 17.9525 49.6136 18.0961 49.4344L29.0194 35.9154C30.5984 33.9621 31.851 31.6429 32.7056 29.0903C33.5601 26.5377 34 23.8018 34 21.0387C34 18.2757 33.5601 15.5398 32.7056 12.9872C31.851 10.4346 30.5984 8.1154 29.0194 6.16211Z" fill="white"/>
<path d="M27 18.2099C27 16.4396 26.4428 14.7091 25.399 13.2372C24.3551 11.7653 22.8714 10.6181 21.1355 9.94061C19.3996 9.26316 17.4895 9.0859 15.6466 9.43126C13.8038 9.77663 12.1111 10.6291 10.7825 11.8809C9.45389 13.1326 8.5491 14.7275 8.18254 16.4637C7.81598 18.2 8.00412 19.9996 8.72315 21.6351C9.44218 23.2707 10.6598 24.6686 12.2221 25.6521C13.7844 26.6356 15.6211 27.1605 17.5 27.1605C20.0196 27.1605 22.4359 26.2175 24.2175 24.5389C25.9991 22.8604 27 20.5837 27 18.2099ZM11.8 18.2099C11.8 17.1477 12.1343 16.1094 12.7606 15.2263C13.387 14.3431 14.2772 13.6548 15.3187 13.2483C16.3602 12.8419 17.5063 12.7355 18.612 12.9427C19.7177 13.1499 20.7334 13.6614 21.5305 14.4125C22.3277 15.1635 22.8705 16.1204 23.0905 17.1622C23.3104 18.2039 23.1975 19.2837 22.7661 20.265C22.3347 21.2464 21.6041 22.0851 20.6668 22.6752C19.7294 23.2653 18.6274 23.5803 17.5 23.5803C15.9883 23.5803 14.5385 23.0145 13.4695 22.0073C12.4005 21.0002 11.8 19.6342 11.8 18.2099Z" fill="white"/>
</svg>
