<svg width="600" height="450" viewBox="0 0 600 450" fill="none" xmlns="http://www.w3.org/2000/svg">
<path d="M325.519 113.209H324.544V74.4224C324.544 61.3199 313.916 50.6924 300.814 50.6924H299.149C286.046 50.6924 275.419 61.3199 275.419 74.4224V113.209H274.44C273.454 113.209 272.644 114.015 272.644 115.005C272.644 115.995 273.454 116.805 274.44 116.805H275.419H324.544H325.519C326.509 116.805 327.319 115.995 327.319 115.005C327.319 114.015 326.509 113.209 325.519 113.209ZM301.777 54.2999C312.54 54.8811 320.959 63.7686 320.959 74.5424V79.7324H301.777V54.2999ZM279.004 74.5424C279.004 63.7686 287.422 54.8811 298.185 54.2999V79.7324H279.004V74.5424ZM279.004 113.209V83.3136H298.185V113.197L279.004 113.209ZM301.777 113.209V83.3136H320.959V113.197L301.777 113.209Z" fill="#F2921D"/>
<path d="M427.613 123.581L427.605 85.005C427.605 80.9775 429.142 77.1562 431.94 74.2388C433.961 72.0938 435.079 69.3262 435.079 63.21V55.875L444.652 63.135L444.664 66.4425C444.664 69.3337 445.774 72.0938 447.799 74.2087C450.593 77.1262 452.137 80.9475 452.137 84.975V123.581H427.613Z" fill="#030303"/>
<path opacity="0.25" d="M446.359 123.555L446.347 84.9527C446.347 80.9327 444.81 77.1114 442.016 74.1977C439.987 72.0789 438.874 69.3152 438.874 66.4164V51.1989L444.652 51.1914L444.664 66.4164C444.664 69.3152 445.774 72.0714 447.799 74.1827C450.592 77.1002 452.137 80.9252 452.137 84.9527V123.555H446.359Z" fill="black"/>
<path d="M427.613 114.589V84.9829L452.137 84.9717V114.589H427.613Z" fill="#FFC930"/>
<path opacity="0.25" d="M446.389 114.589L446.377 84.9829L452.126 84.9717L452.137 114.589H446.389Z" fill="#D59D00"/>
<path d="M435.079 63.1612L435.071 51.195L444.649 51.1875L444.656 63.1612H435.079Z" fill="white"/>
<path d="M439.871 53.5839C436.635 53.4489 435.097 51.2139 435.274 51.1839L444.54 51.1689C444.214 52.6202 442.35 53.5614 439.871 53.5839Z" fill="#030303"/>
<path d="M503.812 92.0324C501.075 89.6512 499.646 88.5787 499.646 83.4599V72.0337H491.314V83.4599C491.314 88.5787 489.885 89.6512 487.148 92.0324C484.41 94.4099 484.054 96.7912 484.054 100.125V124.166H506.906V100.125C506.906 96.7912 506.55 94.4099 503.812 92.0324Z" fill="#FFC930"/>
<path opacity="0.2" d="M503.812 92.0324C501.075 89.6512 499.646 88.5787 499.646 83.4599V72.0337H495.836V83.4599C495.836 88.5787 497.265 89.6512 500.002 92.0324C502.74 94.4099 503.096 96.7912 503.096 100.125V124.166H506.906V100.125C506.906 96.7912 506.55 94.4099 503.812 92.0324Z" fill="#A88931"/>
<path d="M499.65 65.8462H491.321V70.3687H499.65V65.8462Z" fill="#FFC930"/>
<path d="M491.314 83.5799H499.646C499.646 83.5462 499.646 83.4974 499.646 83.4599V72.0337H491.314V83.4599C491.314 83.4974 491.314 83.5462 491.314 83.5799Z" fill="#FFC930"/>
<path opacity="0.2" d="M495.825 83.5799H499.646C499.646 83.5462 499.646 83.4974 499.646 83.4599V72.0337H495.825V83.4599C495.825 83.4974 495.825 83.5462 495.825 83.5799Z" fill="#A6862B"/>
<path d="M497.46 65.8462H493.511V70.3687H497.46V65.8462Z" fill="#030303"/>
<path d="M484.054 105.671V109.17L495.48 120.596L506.906 109.17V105.671L495.48 94.2451L484.054 105.671Z" fill="#030303"/>
<path opacity="0.2" d="M495.596 97.6235L485.801 107.422L495.596 117.217L505.391 107.422L495.596 97.6235Z" fill="black"/>
<path d="M495.48 111.847C497.925 111.847 499.909 109.864 499.909 107.419C499.909 104.974 497.925 102.994 495.48 102.994C493.035 102.994 491.051 104.974 491.051 107.419C491.051 109.864 493.035 111.847 495.48 111.847Z" fill="#6A6A6A"/>
<path d="M491.291 70.3687H499.68C500.205 70.3687 500.633 70.7962 500.633 71.3212C500.633 71.8462 500.205 72.2737 499.68 72.2737H491.291C490.766 72.2737 490.339 71.8462 490.339 71.3212C490.339 70.7962 490.766 70.3687 491.291 70.3687Z" fill="black"/>
<path d="M495.596 97.6235L485.801 107.422L495.596 117.217L505.391 107.422L495.596 97.6235Z" stroke="black" stroke-width="4" stroke-linecap="round" stroke-linejoin="round"/>
<path d="M491.336 78.6636L499.027 70.9761" stroke="#343027" stroke-width="4" stroke-linecap="round" stroke-linejoin="round"/>
<path d="M499.646 76.9614L492.994 83.6177" stroke="#343027" stroke-width="4" stroke-linecap="round" stroke-linejoin="round"/>
<path d="M157.658 399.971H188.018L188.561 380.633C187.909 375.971 188.126 370.733 188.49 365.164V365.055L172.62 329.49L151.766 365.164C151.946 372.645 152.925 383.419 153.9 392.633L157.658 399.971Z" fill="#CA7358"/>
<path d="M207.536 404.996C206.921 403.984 206.126 402.934 205.005 401.996C200.197 397.946 197.921 397.26 193.511 392.272C190.62 388.984 189.176 385.042 188.561 380.599H178.984C175.549 380.599 172.946 383.707 173.599 387.105L174.611 392.524H153.9C154.406 397.26 154.912 401.632 155.31 404.959L155.85 406.729H207.247L207.536 404.996Z" fill="#F2921D"/>
<path d="M50.745 335.419C44.4938 343.08 38.5275 351.971 33.975 359.239L32.4938 364.478L55.1175 385.586L67.4813 372.683C69.6862 369.323 73.2262 365.344 78.8662 360.54L93.36 323.816L50.745 335.419Z" fill="#CA7358"/>
<path d="M53.13 368.67L50.31 373.44L33.975 359.201C31.1925 363.645 28.8413 367.624 27.1088 370.657L26.6025 372.682L65.2762 406.151L66.18 404.85C66.8287 401.921 66.54 398.921 65.8537 395.959C65.0587 392.599 63.2512 386.31 63.7575 382.477C64.1175 379.624 64.95 376.477 67.515 372.536L61.4437 367.26C58.8787 365.055 54.8662 365.707 53.13 368.67Z" fill="#F2921D"/>
<path d="M87.285 139.665H69.8662C57.9375 139.665 48.2138 149.389 48.2138 161.314V227.603H87.2513H87.285H146.67V139.665H87.285Z" fill="#231F20"/>
<path d="M66.6863 210.36C71.4563 210.36 75.3225 206.137 75.3225 200.929C75.3225 195.72 71.4563 191.494 66.6863 191.494C61.9125 191.494 58.0462 195.72 58.0462 200.929C58.0462 206.137 61.9125 210.36 66.6863 210.36Z" fill="#E7E2DC"/>
<path d="M78.7913 201.146H54.54C54.54 206.059 57.5025 210.506 62.0963 212.385V215.456H71.2763V212.385C75.8288 210.506 78.7913 206.059 78.7913 201.146Z" fill="#F2921D"/>
<path d="M48.1425 177.326L86.49 161.857" stroke="black" stroke-width="4" stroke-linecap="round" stroke-linejoin="round"/>
<path d="M86.5275 139.665V227.603" stroke="black" stroke-width="4" stroke-linecap="round" stroke-linejoin="round"/>
<path d="M152.093 150.255L127.009 148.013L126.431 130.811L126.54 130.736C126.143 118.703 125.636 108.255 132.9 103.811C137.779 100.92 143.055 100.125 146.599 100.016C148.298 99.9414 149.959 100.088 151.549 100.234C159.536 101.138 162.791 106.448 163.984 109.556C165.248 112.485 165.611 116.858 165.934 121.125C166.009 121.665 166.043 122.28 166.118 122.895C166.44 123.004 168.139 123.435 169.151 124.196C169.478 124.414 169.729 124.774 169.838 125.209C170.018 126.799 167.816 129.004 167.524 129.293C168.825 136.05 168.03 140.786 165.248 143.314C163.658 144.724 161.201 145.594 158.453 145.665C156.394 145.736 154.189 145.376 151.913 144.653L152.093 150.255Z" fill="#CA7358"/>
<path opacity="0.2" d="M151.913 144.615C151.913 144.615 149.344 143.531 145.766 141.615L152.13 150.255L151.913 144.615Z" fill="#282625"/>
<path d="M159.971 124.23C160.612 124.23 161.126 123.716 161.126 123.075C161.126 122.434 160.612 121.92 159.971 121.92C159.334 121.92 158.816 122.434 158.816 123.075C158.816 123.716 159.334 124.23 159.971 124.23Z" fill="#231F20"/>
<path d="M158.888 130.519C159.611 131.64 160.838 132.293 162.105 132.293" stroke="black" stroke-width="4" stroke-linecap="round" stroke-linejoin="round"/>
<path d="M126.791 141.979L126.394 130.703C125.996 118.665 125.779 108.33 133.046 103.883C139.984 99.6526 147.645 99.7613 151.624 100.234C159.611 101.138 162.863 106.448 164.055 109.556C164.599 111.184 165.068 112.883 165.319 114.581V114.653L165.248 114.728C165.176 114.728 163.62 115.448 161.126 115.665C158.816 115.811 155.273 115.628 151.189 113.569C151.804 120.724 146.344 123.184 146.272 123.184H146.201L146.13 123.113C146.055 123.113 137.31 117.908 134.092 122.243C129.176 128.749 139.226 137.423 139.335 137.531L139.44 137.64L139.335 137.711C134.272 141.979 126.791 141.979 126.791 141.979Z" fill="#231F20"/>
<path d="M126.356 130.703C125.959 118.665 124.841 108.435 132.938 103.703C137.816 100.811 143.093 100.016 146.636 99.9076C148.335 99.8364 149.996 99.9788 151.586 100.125C159.574 101.029 162.9 106.305 164.092 109.414C164.741 110.966 165.105 113.1 165.428 115.665L145.984 123.473L145.913 123.401C144.105 122.171 141.394 120.799 138.54 120.908C137.49 120.941 136.478 121.23 135.503 121.665C132.645 123.146 133.151 128.318 133.151 128.318L126.356 130.703Z" fill="#F2921D"/>
<path d="M165.465 115.628C165.139 113.1 164.887 110.895 164.201 109.339C163.009 106.196 159.536 100.991 151.549 100.088C149.959 99.9414 148.297 99.8364 146.599 99.8701C146.599 99.8701 144.502 102.908 143.201 109.088C141.9 115.305 142.151 121.485 142.151 121.485C143.561 121.991 144.829 122.678 145.837 123.364L145.912 123.435L165.465 115.628Z" fill="#231F20"/>
<path d="M143.925 130.916L140.419 128.64" stroke="black" stroke-width="4" stroke-linecap="round" stroke-linejoin="round"/>
<path d="M172.766 112.665L146.273 123.075" stroke="black" stroke-width="4" stroke-linecap="round" stroke-linejoin="round"/>
<path d="M250.474 160.05C254.235 156.435 249.39 154.807 249.39 154.807C250.042 153.255 248.558 150.506 241.511 152.062C238.44 152.82 229.549 153.904 226.403 154.23L207.716 175.699L215.779 186.472L220.223 177.544C220.223 177.544 244.658 174.289 245.055 170.494C245.344 167.569 234.825 169.301 234.825 169.301C234.825 169.301 242.633 168.326 247.763 165.69C252.934 163.05 250.474 160.05 250.474 160.05Z" fill="#CA7358"/>
<path d="M231.679 159.506C236.344 158.895 249.427 154.845 249.427 154.845" stroke="black" stroke-width="4" stroke-linecap="round" stroke-linejoin="round"/>
<path d="M232.658 165.037C232.658 165.037 243.754 163.121 250.549 160.087" stroke="black" stroke-width="4" stroke-linecap="round" stroke-linejoin="round"/>
<path d="M232.98 169.556L234.934 169.268" stroke="black" stroke-width="4" stroke-linecap="round" stroke-linejoin="round"/>
<path d="M235.185 174.686L221.524 167.423C219.499 166.339 218.741 163.845 219.825 161.858L234.356 134.64C235.44 132.615 237.934 131.858 239.921 132.941L253.582 140.209C255.607 141.293 256.365 143.786 255.281 145.774L240.754 172.988C239.704 174.979 237.21 175.736 235.185 174.686Z" fill="#F2921D"/>
<path d="M243.536 155.749L232.62 149.929C231.465 149.314 231.03 147.87 231.645 146.711L236.344 137.895C236.959 136.736 238.403 136.305 239.561 136.916L250.474 142.736C251.632 143.351 252.064 144.799 251.452 145.954L246.754 154.774C246.139 155.929 244.691 156.364 243.536 155.749Z" fill="#F2921D"/>
<path d="M238.294 165.544L227.378 159.724C226.223 159.109 225.787 157.665 226.402 156.506L227.741 153.979C228.356 152.82 229.8 152.389 230.959 153L241.871 158.82C243.03 159.435 243.461 160.882 242.85 162.037L241.511 164.569C240.896 165.724 239.486 166.159 238.294 165.544Z" fill="#231F20"/>
<path d="M220.549 166.774C221.741 164.569 222.825 162 223.657 159.038C230.415 156.038 236.452 151.121 234.03 148.736C232.62 147.364 212.486 150.761 198.394 168L209.524 178.376C209.524 178.376 210.862 177.724 212.779 176.205" fill="#CA7358"/>
<path d="M217.691 171C218.633 169.807 219.536 168.472 220.369 167.025" stroke="black" stroke-width="4" stroke-linecap="round" stroke-linejoin="round"/>
<path d="M199.586 166.59C193.189 174 188.093 180 187.403 180.904C186.9 179.749 182.344 173.28 177.465 165.109C170.708 153.761 162.068 150.941 155.633 150.979L157.189 180.473C158.021 182.531 165.683 200.46 175.766 207.36C178.511 209.205 181.189 210.469 183.791 211.121C190.8 212.82 197.67 210.36 204.248 203.749C209.126 198.795 213.536 191.171 218.561 181.121L199.586 166.59Z" fill="#FFC930"/>
<path opacity="0.2" d="M157.189 180.435C158.021 182.494 165.682 200.423 175.766 207.326C176.779 208.013 177.754 208.59 178.766 209.096C178.766 209.096 173.67 193.808 167.996 180.075L157.189 180.435Z" fill="black"/>
<path d="M188.381 186.833L187.369 180.87" stroke="black" stroke-width="4" stroke-linecap="round" stroke-linejoin="round"/>
<path d="M190.223 309.829C187.511 259.444 157.946 212.134 157.695 211.628L148.478 211.59C148.478 211.41 148.478 211.339 148.478 211.339L116.381 210.36C101.201 225.649 99.3938 252.867 97.1175 275.925C95.2388 294.143 90.285 302.093 68.2388 318.972C61.8038 323.854 55.8038 329.49 50.4563 335.67L59.0962 343.189L85.695 329.49L69.54 352.478L78.6863 360.754C78.6863 360.754 103.875 340.26 112.26 331.767C127.515 316.298 133.586 310.047 140.561 279.503C141.176 280.879 141.791 282.214 142.406 283.515C148.369 296.49 154.08 307.77 155.021 316.08C155.959 323.997 155.272 328.553 154.478 334.767C154.043 338.022 151.586 351.323 151.804 365.344V365.49H164.707L172.695 339.465L177.825 365.453L188.49 365.419V365.273C188.67 362.453 188.85 359.528 189.101 356.31C189.356 353.202 189.536 349.947 189.791 346.624C190.729 334.407 190.837 322.047 190.223 309.829Z" fill="#F2921D"/>
<path opacity="0.2" d="M145.44 251.925C145.44 251.925 143.239 269.419 140.561 279.469C143.741 287.817 138.971 276.072 142.369 283.444C144.971 289.084 147.502 294.394 149.632 299.277L147.791 256.988C147.682 254.854 147.176 253.227 145.44 251.925Z" fill="#251E16"/>
<path d="M146.021 247.77C145.189 254.963 144.105 262.444 142.658 269.565C141.938 273.143 141.214 276.431 140.527 279.469" stroke="black" stroke-width="4" stroke-linecap="round" stroke-linejoin="round"/>
<path d="M169.984 200.64C169.658 195.397 166.804 190.879 166.369 190.699C168.971 187.41 170.055 183.975 169.549 180.472C168.574 173.677 161.888 168.904 161.816 168.904C161.85 168.795 166.478 157.159 156.285 151.012L152.235 150.941L151.946 146.786L126.9 146.82L127.118 150.941H119.419L107.67 169.41L107.348 169.916C107.239 169.987 97.0463 178.699 103.984 190.121L104.167 190.41C104.059 190.627 103.912 190.879 103.766 191.096C101.67 195.255 100.95 199.264 101.636 202.987C102.9 209.674 108.322 213.289 108.36 213.326H163.223C168.03 210.217 170.31 205.954 169.984 200.64Z" fill="#F2921D"/>
<path d="M102.611 168.87H161.779" stroke="black" stroke-width="4" stroke-linecap="round" stroke-linejoin="round"/>
<path d="M104.021 190.665H166.658" stroke="black" stroke-width="4" stroke-linecap="round" stroke-linejoin="round"/>
<path d="M108.36 221.531L108.322 214.987V213.36L163.189 213.326L163.223 214.987V221.531H108.36Z" fill="#171717"/>
<path d="M136.913 175.481C136.658 172.59 135.431 167.134 133.875 163.05C131.201 156.109 127.08 150.904 127.08 150.904H119.599C119.636 150.941 122.201 156.218 124.444 162.615C125.745 166.376 126.683 169.736 127.226 172.665C127.913 176.314 127.95 179.314 127.369 181.481C126.394 185.096 123.72 188.64 119.348 192C115.841 194.711 111.285 197.276 105.758 199.736C100.841 201.904 96.105 203.494 92.9625 204.469C89.565 205.519 87.3225 206.096 87.285 206.096V216.289C91.8413 215.276 96.9 213.833 101.888 212.096C107.565 210.146 112.804 207.975 117.431 205.661C122.745 203.025 127.046 200.276 130.189 197.494C133.804 194.351 135.938 191.205 136.515 188.134C137.273 184.05 137.273 179.494 136.913 175.481Z" fill="black"/>
<path d="M140.707 195.218C140.707 195.218 126.682 161.858 119.599 150.904C115.984 150.653 95.7075 152.786 101.347 182.966C105.214 203.603 114.971 213.866 121.08 219.071C129.862 226.553 151.549 223.988 163.297 222.18L164.452 197.494C153.611 195.975 140.707 195.218 140.707 195.218Z" fill="#FFC930"/>
<path d="M198.716 214.23C189.862 205.23 178.114 200.096 170.31 198.364C167.779 197.783 165.03 197.603 162.214 197.205L160.297 222.724C165.394 221.929 168.825 220.661 168.825 220.661C173.164 224.134 184.695 236.276 187.189 235.59C190.331 234.758 186.394 228.038 186.394 228.038C186.394 228.038 197.921 236.711 200.381 230.745C200.381 230.745 204.574 230.603 203.524 226.553C203.49 226.553 209.524 225.251 198.716 214.23Z" fill="#CA7358"/>
<path d="M199.62 166.627L218.561 181.05" stroke="black" stroke-width="4" stroke-linecap="round" stroke-linejoin="round"/>
<path d="M162.139 197.352L160.117 222.649" stroke="black" stroke-width="4" stroke-linecap="round" stroke-linejoin="round"/>
<path d="M140.708 195.218L135.356 199.628" stroke="black" stroke-width="4" stroke-linecap="round" stroke-linejoin="round"/>
<path d="M200.344 230.348C195.825 226.013 185.779 218.457 185.779 218.457" stroke="black" stroke-width="4" stroke-linecap="round" stroke-linejoin="round"/>
<path d="M203.126 226.192C199.875 222.724 188.888 213.397 188.888 213.397" stroke="black" stroke-width="4" stroke-linecap="round" stroke-linejoin="round"/>
<path d="M186.356 228.038L182.055 224.059" stroke="black" stroke-width="4" stroke-linecap="round" stroke-linejoin="round"/>
<path d="M151.913 144.615C149.49 143.711 147.863 142.703 147.863 142.703" stroke="black" stroke-width="4" stroke-linecap="round" stroke-linejoin="round"/>
<path d="M155.31 404.996C155.779 408.971 156.105 411.499 156.105 411.499H209.055C209.055 411.499 209.486 408.285 207.536 404.996H155.31Z" fill="#F2921D"/>
<path d="M23.9288 376.549L63.1425 410.85C64.8038 408.934 65.745 406.947 66.2138 404.888L27.1425 370.695C25.0838 374.31 23.8913 376.549 23.9288 376.549Z" fill="#F2921D"/>
<path d="M192.03 390.105L185.704 393.105" stroke="#A46517" stroke-width="4" stroke-linecap="round" stroke-linejoin="round"/>
<path d="M195.394 393.863L190.586 398.708" stroke="#A46517" stroke-width="4" stroke-linecap="round" stroke-linejoin="round"/>
<path d="M64.2975 381.791L57.5775 379.804" stroke="#A46517" stroke-width="4" stroke-linecap="round" stroke-linejoin="round"/>
<path d="M64.2975 386.816L57.4688 387.214" stroke="#A46517" stroke-width="4" stroke-linecap="round" stroke-linejoin="round"/>
<path d="M174.611 392.524L177.754 404.996" stroke="#A46517" stroke-width="4" stroke-linecap="round" stroke-linejoin="round"/>
<path d="M50.31 373.44L44.0963 385.189" stroke="#A46517" stroke-width="4" stroke-linecap="round" stroke-linejoin="round"/>
<path d="M152.201 150.941H149.453" stroke="black" stroke-width="4" stroke-linecap="round" stroke-linejoin="round"/>
<path d="M172.658 339.394L172.62 329.49" stroke="black" stroke-width="4" stroke-linecap="round" stroke-linejoin="round"/>
<path d="M85.695 329.49L94.8038 321.792" stroke="black" stroke-width="4" stroke-linecap="round" stroke-linejoin="round"/>
<path d="M381.214 134.816C377.91 134.816 375.225 132.127 375.225 128.824C375.225 125.52 377.91 122.835 381.214 122.835H540.547C543.851 122.835 546.54 125.52 546.54 128.824C546.54 132.127 543.851 134.816 540.547 134.816H381.214Z" fill="#CECECE"/>
<path d="M322.429 166.293C316.56 157.413 308.25 144.982 305.006 141.892C301.609 138.648 295.226 133.14 292.909 133.14C292.189 133.14 291.671 133.372 291.416 133.86C290.49 135.378 291.904 138.828 292.909 140.861C292.215 140.707 291.518 140.655 290.771 140.655C288.818 140.655 287.22 141.221 286.5 142.098C284.389 144.723 286.14 147.607 286.166 147.63C286.14 147.63 284.081 148.042 283.204 149.64C282.664 150.592 282.664 151.751 283.178 153.09C283.178 153.09 282.431 153.81 282.022 154.89C281.636 155.895 281.531 157.413 282.997 158.955C282.949 158.955 281.944 159.678 281.764 160.965C281.636 161.943 282.071 163.05 283.024 164.13C285.547 167.062 289.432 167.553 290.696 167.681C290.797 167.707 290.876 167.707 290.977 167.707C291.21 167.707 291.442 167.681 291.75 167.606C291.877 167.553 291.983 167.501 292.084 167.448C291.93 167.681 291.983 168.015 292.136 168.3C293.734 171.337 297.154 177.36 300.397 182.583C300.63 182.97 301.144 183.048 301.504 182.79L322.249 167.321C322.56 167.088 322.661 166.627 322.429 166.293Z" fill="#8A5F51"/>
<path opacity="0.25" d="M294.787 145.211C294.787 145.211 298.159 147.247 298.673 147.735C299.01 148.042 299.164 148.173 299.164 148.275C298.777 156.821 302.175 161.812 303.769 164.231C303.975 164.542 304.155 164.823 304.309 165.056C304.387 165.21 304.26 165.363 304.106 165.315C300.116 163.537 298.286 161.812 297.671 161.118C297.566 161.013 297.386 161.066 297.386 161.197C297.334 161.531 297.206 162.071 296.872 162.637C296.28 163.642 295.38 164.077 295.02 164.231C294.941 164.257 294.889 164.362 294.915 164.437C295.147 165.21 295.02 166.035 294.529 166.676C294.067 167.242 293.295 167.655 292.29 167.655C292.215 167.655 292.11 167.655 292.057 167.655H292.084C292.755 167.426 293.269 166.908 293.475 166.267C293.655 165.701 293.707 164.823 292.984 163.717C292.909 163.616 292.984 163.485 293.089 163.462C293.629 163.357 294.866 163.023 295.354 161.992C296.201 160.14 294.682 157.8 294.682 157.773C294.682 157.773 294.682 157.773 294.709 157.773C294.735 157.773 294.889 157.773 295.046 157.773C295.635 157.773 296.719 157.642 297.36 156.588C298.238 155.122 297.36 153.217 297.052 152.651C297 152.572 297.052 152.471 297.131 152.418C297.54 152.238 298.545 151.545 298.132 149.46C297.746 147.401 294.84 145.237 294.787 145.211Z" fill="#222222"/>
<path d="M291.622 167.628C292.961 167.347 294.116 165.495 292.549 163.41C292.549 163.41 294.503 163.177 295.121 161.812C295.973 159.806 294.349 157.695 294.349 157.695C294.349 157.695 296.228 158.002 297.105 156.461C298.106 154.657 296.64 152.366 296.64 152.366C296.64 152.366 298.08 151.492 297.878 149.381C297.593 146.91 294.787 145.211 294.787 145.211" stroke="black" stroke-width="4" stroke-linecap="round"/>
<path d="M282.997 158.955C284.749 160.039 287.914 161.633 292.549 163.41" stroke="black" stroke-width="4" stroke-linecap="round"/>
<path d="M283.177 153.09C285.214 154.324 289.691 156.667 294.349 157.695" stroke="black" stroke-width="4" stroke-linecap="round"/>
<path d="M285.96 147.581C289.252 149.82 292.781 151.339 296.64 152.366" stroke="black" stroke-width="4" stroke-linecap="round"/>
<path d="M292.781 140.426L294.735 145.031" stroke="black" stroke-width="4" stroke-linecap="round"/>
<path d="M304.309 165.056C301.939 161.966 298.721 155.816 299.16 148.275" stroke="black" stroke-width="4" stroke-linecap="round"/>
<path d="M373.905 149.486L374.16 145.031C374.16 145.031 369.195 146.681 364.02 144.491C359.595 141.892 358.436 137.464 360.004 129.641C360.495 127.196 360.727 124.417 360.934 121.56C361.114 119.216 361.316 116.797 361.654 114.506C362.295 110.415 363.353 110.235 364.999 108.225C368.01 104.467 374.006 101.947 379.901 101.947C384.326 101.947 388.601 103.309 392.179 105.937C402.345 113.374 401.134 126.116 400.8 130.155C400.826 130.129 398.974 150.154 398.974 150.154L373.905 149.486Z" fill="#8A5F51"/>
<path opacity="0.25" d="M374.186 144.982C374.471 144.851 378.383 143.332 381.394 141.379C381.42 141.352 381.473 141.401 381.446 141.427L373.751 151.545L374.186 144.982Z" fill="#222222"/>
<path d="M339.956 405.27C341.887 401.565 345.592 399.12 349.271 396.881C352.309 395.029 355.451 393.176 358.102 390.24C360.184 387.949 361.294 380.974 360.57 374.025H395.449C394.391 387.9 392.411 399.866 391.226 405.27H390.967H339.956Z" fill="#F2921D"/>
<path d="M338.539 411.011C338.67 408.693 339.21 406.687 340.136 404.91H391.226C390.353 409.005 389.655 411.011 389.655 411.011H338.539Z" fill="#0D0D0C"/>
<path d="M360.728 376.316C360.315 367.59 358.204 356.344 355.991 344.453C354.139 334.673 352.283 324.555 351.33 315.626C348.244 286.568 351.975 260.34 355.657 243.48C359.644 225.206 364.406 213.701 364.459 213.548L395.449 213.341C395.524 213.521 400.106 228.784 401.265 249.296C401.858 259.155 398.228 269.606 394.778 279.694C390.892 291.045 387.21 301.751 389.295 311.171C389.606 312.615 389.966 314.134 390.352 315.78C393 327 397.069 343.961 395.678 369.083C395.498 371.813 395.37 374.051 395.19 376.264H360.728V376.316Z" fill="white"/>
<path opacity="0.19" d="M358.823 411.011C359.336 403.162 365.205 399.866 371.408 396.367C375.011 394.331 378.769 392.197 381.679 389.107C386.618 383.831 383.378 370.113 379.256 352.792C376.736 342.161 373.879 330.063 372.281 317.478C369.555 295.961 372.953 268.807 376.271 249.84C379.875 229.248 384.173 213.547 384.225 213.367H399.488C399.593 213.547 409.89 228.757 411.071 249.296C411.589 257.79 411.049 266.748 410.557 275.448C409.811 288.367 409.118 300.57 411.484 311.197C411.795 312.641 412.155 314.16 412.541 315.806C415.193 327.026 419.258 343.987 417.866 369.108C416.299 397.68 411.949 410.932 411.896 411.037H358.871V411.011H358.823Z" fill="#808080"/>
<path d="M369.146 405.142C371.074 401.437 374.704 399.12 378.386 396.881C381.424 395.029 384.562 393.176 387.214 390.24C389.659 387.536 389.786 378.862 389.632 374.025H424.586C423.529 387.874 421.496 399.607 420.311 405.015H419.824L369.146 405.142Z" fill="#F2921D"/>
<path d="M367.65 411.011C367.778 408.667 368.318 406.687 369.244 404.91H420.338C419.464 409.005 418.77 411.011 418.77 411.011H367.65Z" fill="#0D0D0C"/>
<path d="M389.655 376.316C389.242 367.59 387.262 356.344 385.05 344.452C383.194 334.672 381.341 324.555 380.389 315.626C374.471 259.98 378.742 213.855 378.795 213.394H406.361C406.462 213.574 416.76 228.784 417.945 249.322C418.459 257.816 417.919 266.775 417.431 275.475C416.685 288.394 415.987 300.592 418.357 311.224C418.665 312.664 419.025 314.182 419.411 315.832C422.062 327.052 426.259 344.014 424.867 369.135C424.687 371.865 424.714 374.13 424.534 376.342L424.252 376.316H389.786H389.655Z" fill="white"/>
<path opacity="0.25" d="M398.306 213.394H406.312C406.414 213.574 416.707 228.784 417.892 249.322L398.306 213.394Z" fill="#808080"/>
<path d="M454.646 212.696C453.439 204.048 447.776 193.241 443.22 185.673C439.717 179.906 436.372 175.121 434.674 172.777C430.402 166.781 426.052 162.663 421.395 159.806C417.225 157.207 412.721 155.737 407.239 155.096C398.872 153.783 398.872 150.36 398.872 148.762L373.931 148.815L373.365 153.525C373.365 153.525 372.979 153.525 372.491 153.525C370.174 153.525 362.092 153.836 354.964 158.16C344.539 164.463 329.096 176.561 328.969 176.688C328.942 176.64 326.164 172.211 322.56 166.627L300.503 183.022C310.05 198.131 316.639 203.302 320.449 205.001C322.095 205.747 324.127 206.133 326.366 206.133C340.241 206.133 360.135 191.748 360.341 191.617L364.23 214.035L406.721 214.087L413.876 195.735L425.539 211.927C425.486 211.927 420.517 211.41 411.69 210.795L409.245 235.706C415.732 237.251 422.423 238.177 429.116 238.515C429.731 238.537 430.35 238.537 430.969 238.537C439.102 238.537 445.898 235.863 450.116 231.022C454.106 226.443 455.677 220.083 454.646 212.696Z" fill="#F2921D"/>
<path d="M377.535 249.813C377.351 271.792 378.382 293.748 380.674 315.6C382.759 335.16 389.374 360.255 390.12 376.263" stroke="#5E5E5E" stroke-width="4" stroke-linecap="round"/>
<path d="M350.306 285.255C351.799 244.177 364.305 213.855 364.463 213.547L403.144 213.367L407.134 266.156C407.212 266.595 407.213 267.082 407.213 267.495C407.213 277.301 399.233 285.281 389.426 285.281L350.306 285.255Z" fill="#FFC930"/>
<path d="M399.413 107.531C395.449 107.531 391.744 105.986 388.988 103.207C383.224 97.4436 383.224 88.0724 388.988 82.3086C391.796 79.5036 395.501 77.9849 399.413 77.9849C403.324 77.9849 407.085 79.5299 409.838 82.3086C412.643 85.1136 414.161 88.8186 414.161 92.7336C414.161 96.6974 412.616 100.402 409.838 103.155C407.033 105.986 403.324 107.531 399.413 107.531Z" fill="#231F20"/>
<path d="M414.262 116.051C409.039 116.051 393.544 107.325 391.459 104.779C391.328 104.573 391.253 104.441 391.253 104.34C391.279 104.213 391.485 104.134 391.894 104.134C395.291 104.134 412.748 109.823 415.628 113.839C416.014 114.353 416.119 114.814 415.961 115.226C415.759 115.766 415.192 116.051 414.262 116.051Z" fill="#030303"/>
<path d="M390.304 103.567C388.193 103.567 372.233 92.1148 370.253 87.1985C369.941 86.4523 369.967 85.8598 370.38 85.4998C370.612 85.2935 370.92 85.166 371.306 85.166C374.063 85.166 379.853 90.6485 382.219 93.0148C386.314 97.0798 389.992 101.561 390.457 103.027C390.532 103.26 390.533 103.414 390.431 103.466C390.458 103.541 390.379 103.567 390.304 103.567Z" fill="#030303"/>
<path opacity="0.25" d="M345.416 200.498L365.051 180.705L360.394 191.618C360.315 191.644 353.651 196.481 345.416 200.498Z" fill="#0D0D0C"/>
<path opacity="0.25" d="M396.784 214.035L408.806 188.786L413.876 195.735L406.77 214.061L396.784 214.035Z" fill="#0D0D0C"/>
<path d="M364.23 214.035L360.341 191.617C360.341 191.516 358.849 180.037 370.121 175.402C373.365 174.063 376.762 173.396 380.291 173.396C384.356 173.396 388.579 174.27 392.824 176.1C396.814 177.772 400.084 180.603 402.27 184.335C404.456 188.04 405.409 192.288 404.921 196.56L403.069 214.035H364.23Z" fill="#FFC930"/>
<path d="M432.488 169.894C424.354 160.114 414.06 157.567 399.026 156.487C396.067 156.281 393.544 155.557 391.537 154.297C388.939 152.704 387.266 149.974 387.034 146.936L386.156 136.204C386.182 136.204 387.934 135.379 389.839 134.066C391.616 132.832 393.855 130.875 394.702 128.509C395.216 127.042 395.141 125.55 394.421 124.106C393.39 122.074 391.819 121.042 389.76 121.042C385.901 121.042 381.626 124.597 381.577 124.62C381.525 124.571 376.222 124.391 375.555 119.269C375.555 119.269 368.04 120.709 368.707 114.532C364.279 116.899 361.631 114.379 361.631 114.379C362.145 110.722 363.352 107.404 364.95 105.371C367.961 101.61 373.957 99.0898 379.852 99.0898C384.277 99.0898 388.553 100.455 392.13 103.08C402.296 110.516 401.344 122.719 401.01 126.731C401.036 126.705 403.867 125.677 407.7 125.677C412.462 125.677 416.527 127.249 419.771 130.309C426.825 137.029 424.792 147.787 424.74 147.889C424.841 147.889 433.44 148.762 435.652 157.669C437.377 164.876 432.488 169.894 432.488 169.894Z" fill="#231F20"/>
<path d="M374.265 144.983C376.016 144.39 377.737 143.693 379.414 142.946" stroke="black" stroke-width="4" stroke-linecap="round"/>
<path d="M422.887 154.324C423.866 152.186 424.226 149.846 424.74 147.889C424.275 149.895 423.814 152.137 422.887 154.324Z" stroke="#6E6265" stroke-width="4" stroke-linecap="round" stroke-linejoin="round"/>
<path d="M400.466 132.678H400.44L401.006 126.911V126.731L400.466 132.678Z" stroke="#6E6265" stroke-width="4" stroke-linecap="round" stroke-linejoin="round"/>
<path d="M386.902 140.426C389.047 140.426 390.787 138.686 390.787 136.537C390.787 134.392 389.047 132.652 386.902 132.652C384.754 132.652 383.014 134.392 383.014 136.537C383.014 138.686 384.754 140.426 386.902 140.426Z" fill="#DED8D2"/>
<path d="M385.616 128.996L389.505 126.682" stroke="black" stroke-width="4" stroke-linecap="round"/>
<path d="M367.777 135.33C368.704 135.405 369.81 135.124 370.481 133.991" stroke="black" stroke-width="4" stroke-linecap="round"/>
<path d="M372.952 127.324C373.594 127.324 374.111 126.803 374.111 126.165C374.111 125.524 373.594 125.006 372.952 125.006C372.315 125.006 371.798 125.524 371.798 126.165C371.798 126.803 372.315 127.324 372.952 127.324Z" fill="#231F20"/>
<path d="M364.125 125.805C364.766 125.805 365.284 125.287 365.284 124.646C365.284 124.009 364.766 123.487 364.125 123.487C363.484 123.487 362.966 124.009 362.966 124.646C362.966 125.287 363.484 125.805 364.125 125.805Z" fill="#231F20"/>
<path d="M366.803 128.764C366.521 129.536 366.289 130.515 366.416 130.8C366.701 131.441 367.474 131.674 367.474 131.674" stroke="black" stroke-width="4" stroke-linecap="round"/>
<path d="M361.088 155.895L367.984 177.848" stroke="#120E04" stroke-width="4" stroke-linecap="round"/>
<path d="M373.365 153.525L372.979 158.366" stroke="black" stroke-width="4" stroke-linecap="round"/>
<path d="M328.965 176.688L333.96 183.742" stroke="black" stroke-width="4" stroke-linecap="round"/>
<path d="M407.059 157.489L395.527 179.366" stroke="#120E04" stroke-width="4" stroke-linecap="round"/>
<path d="M363.967 213.986H407.239" stroke="#120E04" stroke-width="4" stroke-linecap="round"/>
<path d="M370.819 194.295H389.351" stroke="#120E04" stroke-width="4" stroke-linecap="round"/>
<path d="M379.748 242.887C378.413 242.887 377.355 242.272 376.609 241.087C376.609 241.087 375.244 241.86 373.598 241.86C372.364 241.86 371.28 241.421 370.433 240.574C370.433 240.574 369.3 241.087 368.04 241.087C366.649 241.087 365.618 240.469 365.003 239.287C363.458 236.197 367.294 225.645 377.895 218.437C384.844 213.701 391.976 210.536 404.149 210.536C405.848 210.536 407.7 210.615 409.579 210.716C409.916 210.742 411.51 210.844 411.896 210.87L409.478 235.732C403.249 234.292 399.026 232.901 399.026 232.901C399.026 232.901 396.634 235.759 391.05 237.022C391.05 237.045 389.76 240.394 387.701 241.654C386.621 242.321 385.463 242.707 384.409 242.707C383.663 242.707 383.018 242.501 382.556 242.167C382.53 242.115 381.218 242.887 379.748 242.887Z" fill="#8A5F51"/>
<path d="M413.876 195.735L410.404 190.95" stroke="black" stroke-width="4" stroke-linecap="round"/>
<path d="M434.674 212.647L425.539 211.927" stroke="black" stroke-width="4" stroke-linecap="round"/>
<path d="M370.305 240.416C370.819 237.33 372.619 232.44 374.936 229.35" stroke="black" stroke-width="4" stroke-linecap="round"/>
<path d="M376.481 240.907C377.254 238.076 378.799 234.214 380.599 231.36" stroke="black" stroke-width="4" stroke-linecap="round"/>
<path d="M382.399 241.935C382.916 240.393 384.202 236.79 386.002 233.958" stroke="black" stroke-width="4" stroke-linecap="round"/>
<path opacity="0.25" d="M425.539 211.928L421.421 206.239L436.451 212.723V212.775L425.539 211.928Z" fill="#0D0D0C"/>
<path opacity="0.25" d="M328.965 176.689C328.991 176.666 331.23 174.915 334.549 172.417L334.834 185.002L328.965 176.689Z" fill="#0D0D0C"/>
<path d="M366.57 386.43L360.056 386.224" stroke="black" stroke-width="4" stroke-linecap="round" stroke-linejoin="round"/>
<path d="M366.39 390.086L359.055 389.752" stroke="black" stroke-width="4" stroke-linecap="round" stroke-linejoin="round"/>
<path d="M394.598 386.61L388.856 386.509" stroke="black" stroke-width="4" stroke-linecap="round" stroke-linejoin="round"/>
<path d="M394.624 390.139L387.701 390.007" stroke="black" stroke-width="4" stroke-linecap="round" stroke-linejoin="round"/>
<path d="M451.935 209.902C450.308 209.902 448.984 208.575 448.984 206.947C448.984 205.324 450.308 204 451.935 204H524.674C526.301 204 527.625 205.324 527.625 206.947C527.625 208.575 526.301 209.902 524.674 209.902H451.935Z" fill="black"/>
<path d="M470.681 241.507C463.462 241.492 457.583 235.612 457.568 228.394V190.462C457.688 190.609 518.891 190.609 518.989 190.451L519.011 228.394C519 235.624 513.109 241.507 505.875 241.507H470.681Z" fill="#030303"/>
<path d="M488.302 205.841C467.302 205.841 457.665 190.62 458.119 190.481L518.602 190.489C518.936 190.62 509.299 205.841 488.302 205.841Z" fill="#FFC930"/>
<path d="M488.977 190.478C485.857 190.478 483.315 187.935 483.315 184.815C483.315 181.695 485.857 179.156 488.977 179.156C492.097 179.156 494.64 181.695 494.64 184.815C494.64 187.935 492.097 190.478 488.977 190.478Z" fill="black"/>
<path d="M298.301 209.205C298.301 209.205 288.547 222.48 269.107 222.48C249.664 222.48 239.91 209.205 239.91 209.205H298.301Z" fill="#64523C"/>
<path d="M274.879 214.826C273.78 219.068 269.456 221.614 265.219 220.515C261.06 219.446 258.51 215.258 259.474 211.073C260.516 206.82 265.759 200.288 270.015 201.319C274.268 202.346 275.906 210.57 274.879 214.826Z" fill="#CECECE"/>
<path d="M267.169 217.155C269.486 217.155 271.369 215.276 271.369 212.955C271.369 210.637 269.486 208.755 267.169 208.755C264.848 208.755 262.969 210.637 262.969 212.955C262.969 215.276 264.848 217.155 267.169 217.155Z" fill="#FFC930"/>
<path opacity="0.2" d="M265.219 220.515C265.733 220.65 266.261 220.732 266.775 220.759C267.615 220.717 268.429 220.541 269.201 220.245C269.43 218.902 269.336 217.492 268.875 216.112C267.848 213.022 264.596 208.972 261.206 207.199C260.381 208.526 259.759 209.88 259.474 211.072C258.51 215.257 261.06 219.446 265.219 220.515Z" fill="#3C2C5B"/>
<path d="M267.262 215.501C268.766 220.001 266.329 224.865 261.832 226.369C257.332 227.873 252.469 225.435 250.965 220.935C249.461 216.439 250.504 207.416 255.004 205.913C259.5 204.409 265.759 210.99 267.262 215.501Z" fill="#CECECE"/>
<path d="M259.121 222.765C261.637 222.765 263.674 220.725 263.674 218.213C263.674 215.696 261.637 213.66 259.121 213.66C256.605 213.66 254.569 215.696 254.569 218.213C254.569 220.725 256.605 222.765 259.121 222.765Z" fill="#FFC930"/>
<path d="M270.855 220.991C270.435 220.815 270.229 220.339 270.405 219.919L287.992 175.999L290.741 177.15L271.939 220.556C271.762 220.976 271.275 221.167 270.855 220.991Z" fill="#3C2C5B"/>
<path d="M286.189 187.661L290.741 177.15L287.992 175.999L283.725 186.634L286.189 187.661Z" fill="white"/>
<path d="M289.361 178.057C290.183 178.057 290.85 177.39 290.85 176.569C290.85 175.744 290.183 175.076 289.361 175.076C288.536 175.076 287.869 175.744 287.869 176.569C287.869 177.39 288.536 178.057 289.361 178.057Z" fill="#F2921D"/>
<path d="M270.772 225.068C270.405 224.809 270.311 224.295 270.57 223.931L297.338 184.913L299.779 186.634L271.909 224.876C271.654 225.244 271.136 225.326 270.772 225.068Z" fill="#3C2C5B"/>
<path d="M291.161 193.909L293.348 195.458L299.779 186.645L297.338 184.913L291.161 193.909Z" fill="white"/>
<path d="M298.549 187.286C299.374 187.286 300.041 186.615 300.041 185.79C300.041 184.965 299.374 184.297 298.549 184.297C297.724 184.297 297.052 184.965 297.052 185.79C297.052 186.615 297.724 187.286 298.549 187.286Z" fill="#F2921D"/>
<path opacity="0.2" d="M253.5 224.715C255.424 223.89 256.777 221.966 256.777 219.743C256.777 216.844 254.516 214.485 251.655 214.339C251.224 214.35 250.804 214.418 250.41 214.541C250.192 216.885 250.395 219.244 250.98 220.95C251.468 222.454 252.36 223.74 253.5 224.715Z" fill="#3C2C5B"/>
<path d="M250.358 224.243C253.35 224.243 255.776 221.816 255.776 218.824C255.776 215.828 253.35 213.401 250.358 213.401C247.365 213.401 244.939 215.828 244.939 218.824C244.939 221.816 247.365 224.243 250.358 224.243Z" fill="#3C2C5B"/>
<path d="M250.357 221.869C252.041 221.869 253.402 220.507 253.402 218.824C253.402 217.136 252.041 215.775 250.357 215.775C248.674 215.775 247.309 217.136 247.309 218.824C247.309 220.507 248.674 221.869 250.357 221.869Z" fill="#FFC930"/>
<path d="M287.438 227.857C291.739 227.857 295.226 224.37 295.226 220.069C295.226 215.767 291.739 212.28 287.438 212.28C283.133 212.28 279.645 215.767 279.645 220.069C279.645 224.37 283.133 227.857 287.438 227.857Z" fill="#3C2C5B"/>
<path d="M287.423 225.502C290.415 225.502 292.841 223.076 292.841 220.084C292.841 217.087 290.415 214.661 287.423 214.661C284.43 214.661 282.004 217.087 282.004 220.084C282.004 223.076 284.43 225.502 287.423 225.502Z" fill="#FFC930"/>
<path d="M287.423 223.129C289.106 223.129 290.471 221.768 290.471 220.084C290.471 218.396 289.106 217.035 287.423 217.035C285.739 217.035 284.374 218.396 284.374 220.084C284.374 221.768 285.739 223.129 287.423 223.129Z" fill="#3C2C5B"/>
<path opacity="0.2" d="M282.559 214.012C281.107 215.178 280.065 216.858 279.754 218.835C279.064 223.076 281.947 227.085 286.189 227.778C286.515 227.831 286.852 227.857 287.179 227.872C287.542 226.706 287.734 225.461 287.734 224.16C287.734 219.986 285.69 216.288 282.559 214.012Z" fill="#3C2C5B"/>
<path d="M261.03 207.484C263.861 209.501 266.381 212.861 267.262 215.501" stroke="black" stroke-width="4" stroke-linecap="round" stroke-linejoin="round"/>
<path d="M273.739 235.999C280.661 235.999 286.271 230.389 286.271 223.47C286.271 216.547 280.661 210.938 273.739 210.938C266.816 210.938 261.206 216.547 261.206 223.47C261.206 230.389 266.816 235.999 273.739 235.999Z" fill="#3C2C5B"/>
<path d="M273.739 233.629C279.349 233.629 283.901 229.08 283.901 223.47C283.901 217.856 279.349 213.308 273.739 213.308C268.129 213.308 263.58 217.856 263.58 223.47C263.58 229.08 268.129 233.629 273.739 233.629Z" fill="#FFC930"/>
<path d="M273.739 231.258C278.04 231.258 281.528 227.771 281.528 223.47C281.528 219.165 278.04 215.677 273.739 215.677C269.437 215.677 265.95 219.165 265.95 223.47C265.95 227.771 269.437 231.258 273.739 231.258Z" fill="#3C2C5B"/>
<path d="M273.739 228.889C276.731 228.889 279.157 226.463 279.157 223.47C279.157 220.478 276.731 218.051 273.739 218.051C270.746 218.051 268.32 220.478 268.32 223.47C268.32 226.463 270.746 228.889 273.739 228.889Z" fill="#FFC930"/>
<path d="M273.739 226.519C275.422 226.519 276.787 225.154 276.787 223.47C276.787 221.786 275.422 220.421 273.739 220.421C272.055 220.421 270.69 221.786 270.69 223.47C270.69 225.154 272.055 226.519 273.739 226.519Z" fill="#3C2C5B"/>
<path d="M282.341 214.039C284.876 216.465 286.256 219.851 286.178 223.346" stroke="black" stroke-width="4" stroke-linecap="round" stroke-linejoin="round"/>
<path d="M269.107 222.48C249.664 222.48 239.91 209.205 239.91 209.205C239.91 225.326 252.982 238.399 269.107 238.399C285.229 238.399 298.301 225.326 298.301 209.205C298.301 209.205 288.547 222.48 269.107 222.48Z" fill="#F2921D"/>
<path opacity="0.2" d="M286.785 218.333C283.466 228.439 274.77 236.108 264.079 237.964C265.718 238.249 267.398 238.399 269.108 238.399C285.229 238.399 298.301 225.326 298.301 209.205C298.301 209.205 294.278 214.511 286.785 218.333Z" fill="#64523C"/>
<path d="M291.54 227.884C290.794 226.815 289.875 225.881 288.304 225.881C286.282 225.881 285.322 227.438 284.467 228.806C283.616 230.175 283.005 231.03 281.91 231.03C280.811 231.03 280.2 230.19 279.349 228.806C278.494 227.426 277.534 225.881 275.512 225.881C273.495 225.881 272.535 227.438 271.68 228.806C270.825 230.175 270.218 231.03 269.119 231.03C268.024 231.03 267.412 230.19 266.557 228.806C265.706 227.426 264.742 225.881 262.725 225.881C260.707 225.881 259.744 227.438 258.892 228.806C258.037 230.175 257.426 231.03 256.331 231.03C255.232 231.03 254.625 230.19 253.77 228.806C252.915 227.426 251.955 225.881 249.937 225.881C248.351 225.881 247.417 226.841 246.686 227.914C247.009 228.304 247.35 228.698 247.702 229.065C248.404 227.993 248.974 227.359 249.937 227.359C251.047 227.359 251.644 228.199 252.495 229.579C253.35 230.963 254.31 232.504 256.331 232.504C258.349 232.504 259.312 230.948 260.164 229.579C261.019 228.21 261.626 227.359 262.725 227.359C263.824 227.359 264.431 228.199 265.286 229.579C266.137 230.963 267.101 232.504 269.119 232.504C271.136 232.504 272.1 230.948 272.955 229.579C273.806 228.21 274.417 227.359 275.512 227.359C276.611 227.359 277.223 228.199 278.074 229.579C278.929 230.963 279.889 232.504 281.91 232.504C283.927 232.504 284.887 230.948 285.742 229.579C286.597 228.21 287.205 227.359 288.304 227.359C289.252 227.359 289.834 227.981 290.524 229.039C290.865 228.656 291.202 228.278 291.54 227.884Z" fill="white"/>
<path d="M277.275 237.248H260.921V241.988H277.275V237.248Z" fill="#64523C"/>
<path d="M277.275 237.248H260.921V239.28H277.275V237.248Z" fill="white"/>
<path opacity="0.2" d="M277.275 237.248H267.251V239.28H277.275V237.248Z" fill="#D0D0D0"/>
<path d="M232.455 260.366L515.588 256.556V408.067H232.455V260.366Z" fill="#3C2C5B"/>
<path opacity="0.3" d="M232.455 263.921L515.588 263.963V295.916L232.455 269.591V263.921Z" fill="black"/>
<path d="M487.02 337.601C487.02 316.822 470.134 299.936 449.351 299.936C428.531 299.936 411.686 316.781 411.686 337.601C411.686 316.822 394.8 299.936 374.021 299.936C353.198 299.936 336.353 316.781 336.353 337.601C336.353 316.822 319.466 299.936 298.688 299.936C277.864 299.936 261.023 316.781 261.023 337.601C261.023 320.291 249.255 305.227 232.455 301.035V411.622H261.023H336.353H411.686H487.02H515.588V301.08C498.784 305.227 487.02 320.336 487.02 337.601Z" fill="#030303"/>
<path d="M532.684 241.534H215.696V263.962H532.684V241.534Z" fill="#4E485B"/>
<path d="M261.022 333.918V411.622" stroke="black" stroke-width="4" stroke-linecap="round" stroke-linejoin="round"/>
<path d="M336.521 333.918V411.622" stroke="black" stroke-width="4" stroke-linecap="round" stroke-linejoin="round"/>
<path d="M411.855 333.918V411.622" stroke="black" stroke-width="4" stroke-linecap="round" stroke-linejoin="round"/>
<path d="M487.189 333.918V411.622" stroke="black" stroke-width="4" stroke-linecap="round" stroke-linejoin="round"/>
<path d="M515.588 263.921H232.455" stroke="black" stroke-width="4" stroke-linecap="round" stroke-linejoin="round"/>
<path d="M556.474 411.596C556.481 384.66 543.484 371.617 535.718 363.825C534.154 362.254 532.804 360.9 531.746 359.64C525.566 352.282 525.015 350.61 518.28 330.097L517.219 326.872C512.04 311.111 507.131 301.241 504.668 296.76C504.428 296.314 504.03 295.961 503.55 295.766C503.288 295.657 503.01 295.601 502.725 295.601C501.829 295.601 501.011 296.156 500.693 296.977L496.148 308.325C491.261 308.929 486.919 312.919 486.874 312.956L471.765 309.401C471.735 309.367 471.701 309.367 471.671 309.367C471.506 309.334 471.338 309.319 471.173 309.319C470.021 309.319 469.031 310.136 468.818 311.261C468.259 314.265 468.563 320.411 473.273 324.409C474.015 325.035 475.016 325.684 476.074 326.37C479.644 328.68 484.091 331.56 484.091 336.769V402.93C484.08 402.93 484.069 402.93 484.058 402.93C482.243 402.93 480.54 403.639 479.269 404.921C477.998 406.204 477.304 407.914 477.319 409.732V411.596H556.474Z" fill="#FFC930"/>
<path d="M485.738 364.601C493.534 364.601 499.875 358.26 499.875 350.463V342.026L484.091 342.015V364.601H485.738Z" fill="white"/>
<path d="M497.704 411.277V409.762C497.704 406.331 500.486 403.548 503.918 403.548H505.121L507.349 385.185C508.369 376.773 515.509 370.466 523.98 370.466" stroke="#0D0B04" stroke-width="4" stroke-linecap="round" stroke-linejoin="round"/>
<path opacity="0.3" d="M497.393 411.596L497.4 410.04C497.4 406.616 500.186 403.834 503.606 403.834H504.814L507.049 385.462C507.45 382.054 508.883 378.904 511.189 376.346L508.583 377.014C503.674 378.289 500.078 382.369 499.425 387.409L497.385 403.549L495.011 403.537C492.54 403.537 490.459 405.472 490.275 407.936L489.994 411.596H497.393Z" fill="#0D0B04"/>
<path d="M490.901 317.917C490.211 317.917 489.656 317.362 489.656 316.672C489.656 315.986 490.211 315.427 490.901 315.427C491.587 315.427 492.146 315.986 492.146 316.672C492.146 317.362 491.587 317.917 490.901 317.917Z" fill="#0D0B04"/>
<path d="M468.641 314.505C471.427 314.505 473.906 312.739 474.802 310.106L471.765 309.386C471.735 309.356 471.701 309.356 471.671 309.356C471.506 309.322 471.337 309.304 471.169 309.304C470.021 309.304 469.031 310.121 468.817 311.246C468.634 312.326 468.57 313.417 468.634 314.497V314.505H468.641Z" fill="#0D0B04"/>
<path d="M523.706 346.054C522.945 343.987 522.049 341.411 520.811 337.695L484.088 337.688V346.054H523.706Z" fill="#0D0B04"/>
</svg>
