<svg width="50" height="50" viewBox="0 0 50 50" fill="none" xmlns="http://www.w3.org/2000/svg">
<g clip-path="url(#clip0_51_107)">
<path d="M30.217 35.2518C30.217 35.2518 34.266 32.9338 35.326 32.3768C36.383 31.8178 37.478 31.6768 38.143 32.0828C39.15 32.6988 47.606 38.3238 48.318 38.8218C49.03 39.3208 49.373 40.7458 48.394 42.1418C47.419 43.5378 42.921 49.0578 41.015 48.9988C39.106 48.9368 31.169 48.7628 16.202 33.7918C1.238 18.8258 1.061 10.8868 0.999998 8.97776C0.938998 7.06976 6.459 2.57076 7.855 1.59476C9.253 0.619762 10.68 0.986762 11.176 1.67276C11.74 2.45376 17.3 10.8828 17.912 11.8488C18.331 12.5088 18.177 13.6098 17.618 14.6678C17.062 15.7278 14.744 19.7768 14.744 19.7768C14.744 19.7768 16.378 22.5638 21.904 28.0888C27.431 33.6148 30.217 35.2518 30.217 35.2518Z" stroke="white" stroke-width="2" stroke-miterlimit="10"/>
</g>
<defs>
<clipPath id="clip0_51_107">
<rect width="50" height="50" fill="white"/>
</clipPath>
</defs>
</svg>
