<svg width="198" height="190" viewBox="0 0 198 190" fill="none" xmlns="http://www.w3.org/2000/svg">
<g clip-path="url(#clip0_211_2707)">
<path d="M84.2563 55.3781C85.0984 53.961 84.9361 52.0036 83.8808 50.7395L84.3983 51.29C84.0838 50.8108 83.6272 50.4642 83.1199 50.2195C82.9778 51.239 81.4254 50.8312 81.3645 51.9221C80.6441 51.2696 80.5832 50.5866 80.8267 49.8933C80.2585 49.9851 79.7208 50.1992 79.2743 50.5764C77.7828 51.8303 77.7016 54.4096 79.1018 55.7655C80.502 57.1214 83.0691 56.9277 84.2563 55.3883V55.3781Z" fill="#D46318"/>
<path d="M121.464 184.953C120.165 187.288 122.275 189.918 125.177 189.765C129.439 189.541 133.782 190 138.104 190C138.814 189.042 139.788 188.277 138.642 187.655C137.495 187.033 133.518 186.401 131.286 185.127C130.677 184.78 130.677 183.404 130.068 183.088C128.79 182.425 127.481 181.844 126.141 181.457C124.964 181.12 122.478 182.751 121.474 184.943L121.464 184.953Z" fill="#8B705C"/>
<path d="M65.2941 177.95C65.5274 177.603 65.7506 177.246 65.7304 176.645C66.5725 177.165 68.1554 176.941 69.2715 177.185C69.1802 176.93 69.099 176.665 68.9874 176.421C68.1452 174.484 64.9389 173.586 62.1689 171.823C62.0979 173.811 62.0269 175.32 61.8645 176.482C61.9863 176.523 62.1182 176.574 62.2501 176.645C61.692 177.838 61.0021 178.888 60.515 180.132C60.2208 179.846 59.7642 179.703 59.3076 179.673C59.0641 179.714 58.7901 179.744 58.4857 179.754C57.8972 179.928 57.4305 180.335 57.4711 180.998C56.7811 180.967 56.6187 180.407 56.5883 179.714C55.4722 179.642 54.143 179.51 52.5195 179.336V184.892C56.9536 185.79 60.8296 186.717 64.7157 187.309C64.7563 187.247 64.7969 187.186 64.8577 187.105C65.6593 186.524 65.2636 187.013 64.9186 187.339C65.1317 187.37 65.3448 187.411 65.5579 187.441C67.0596 187.645 70.0832 186.799 70.0832 186.432C70.0832 183.72 70.1948 180.825 69.5759 178.245C68.5207 179.092 66.4508 177.909 65.2839 177.94L65.2941 177.95ZM67.4654 176.207C67.3842 176.706 67.0291 176.451 67.0291 176.207C67.1103 175.707 67.4654 175.962 67.4654 176.207ZM62.6864 184.495C60.5658 184.933 61.8848 182.17 62.6864 183.618V184.495ZM64.8577 179.703C64.9389 179.204 65.2941 179.459 65.2941 179.703C65.2129 180.203 64.8577 179.948 64.8577 179.703Z" fill="#8B705C"/>
<path d="M63.9935 153.044C62.5933 157.632 63.3644 162.933 63.5166 167.908C63.5369 168.662 65.3735 169.366 66.3678 170.1C66.936 169.213 67.7782 168.387 68.0217 167.419C68.661 164.87 69.2393 162.291 69.838 159.579C69.564 159.681 69.2089 159.701 68.7726 159.64V157.897H70.2134C70.5584 156.347 70.9033 154.747 71.2788 153.054C68.7523 152.106 65.5155 148.1 63.9935 153.054V153.044Z" fill="#D46318"/>
<path d="M133.022 179.214C133.489 172.373 133.945 165.848 134.422 158.916C132.474 159.161 130.688 159.375 129.268 159.558C129.024 163.341 128.852 166.858 128.628 170.283C128.649 170.222 128.679 170.161 128.72 170.1C129.42 169.977 129.471 170.507 130.019 170.538C130.161 171.221 128.77 171.211 128.598 170.62C128.486 172.312 128.365 173.984 128.202 175.656C127.867 179.265 129.349 180.213 133.012 179.214H133.022Z" fill="#D46318"/>
<path d="M137.061 55.8775L135.407 54.542C134.869 54.5828 134.331 54.6337 133.793 54.6745C132.911 56.3771 132.505 58.3344 132.627 60.2511C134.057 60.8424 135.843 60.8729 137.04 59.8841C138.238 58.885 138.37 56.7033 137.061 55.8775Z" fill="#D46318"/>
<path d="M169.975 45.9071C174.014 45.377 178.133 45.4178 182.141 44.7449C192.754 42.971 197.696 37.8737 197.31 28.3008C197.118 23.5194 195.403 18.8094 194.216 13.3552C189.609 17.321 184.931 19.8697 179.919 21.1542C179.767 21.6436 179.391 21.8984 178.671 21.8169C178.661 21.6844 178.651 21.562 178.651 21.4499C173.831 22.4694 168.697 22.3674 163.015 21.2154C162.457 27.5871 161.523 33.1433 161.625 38.6892C161.706 43.6031 164.395 46.6412 169.975 45.9071ZM187.367 39.2703C187.57 40.6262 186.271 40.8301 185.632 40.1369C185.743 39.3723 186.382 39.1378 187.367 39.2703ZM182.151 26.1803C183.653 25.8744 183.714 27.7095 183.024 28.3619C181.522 28.6678 181.472 26.8327 182.151 26.1803ZM182.101 35.172C181.451 34.6623 181.745 33.3268 183.014 33.5919V35.3352C182.72 35.3963 182.496 35.3454 182.304 35.2638L182.638 37.4761C181.187 37.7003 179.747 37.9246 178.296 38.1489C178.509 38.4344 178.651 38.7912 178.671 39.2601C178.285 39.5966 177.687 39.7291 176.936 39.6985C176.611 39.3621 176.5 38.8829 176.55 38.414C175.668 38.5465 174.795 38.6892 173.912 38.8218C173.922 39.097 173.912 39.3927 173.892 39.6985H172.157C172.127 39.4844 172.116 39.2907 172.116 39.097C170.807 39.3009 169.499 39.5048 168.19 39.6985L167.865 37.0479C172.614 36.426 177.352 35.7939 182.101 35.172ZM169.113 24.8651C166.992 25.2423 166.373 24.1209 166.069 22.6834C166.911 22.1533 169.387 22.8975 169.113 24.8651Z" fill="#8B705C"/>
<path d="M197.991 69.7017C197.95 65.8583 197.747 61.8008 195.677 58.5792C190.228 55.6635 184.222 53.8183 178.093 53.1046C177.992 53.4105 177.657 53.6348 176.936 53.6654C176.825 53.3901 176.774 53.1658 176.754 52.9517C176.033 52.8906 175.323 52.86 174.603 52.8192C174.41 53.1352 174.045 53.2983 173.466 53.227V52.758C172.441 52.7376 171.407 52.7376 170.382 52.7784H169.448C170.077 56.1223 170.037 59.5783 169.327 62.8916C173.903 62.4532 178.834 62.0862 182.761 64.482C186.18 66.5719 188.209 70.4765 188.848 74.4423C189.488 78.4081 188.909 82.4758 188.128 86.4212C187.56 89.2961 186.86 92.2016 185.317 94.6993C183.836 97.1155 181.431 99.0933 178.641 99.4807C175.475 99.5418 172.269 99.4603 169.134 99.7151C168.829 99.8987 168.454 99.8171 168.17 99.8069C168.089 99.8069 168.007 99.8273 167.926 99.8375C167.733 99.919 167.754 100.225 168.231 101.193C167.216 101.081 166.374 100.796 165.927 100.123C165.765 100.154 165.593 100.174 165.43 100.205C163.391 100.612 160.093 103.457 160.296 104.711C160.773 107.647 162.894 108.901 165.745 108.513C165.552 107.963 165.653 107.28 166.059 106.862C166.841 106.811 166.972 107.392 167.794 107.3C167.835 107.575 167.835 107.81 167.815 108.014C170.635 107.117 173.202 106.75 176.581 108.391C179.544 109.818 182.223 110.308 184.556 109.92C184.232 109.788 184.019 109.492 184.303 109.043C185.003 108.921 185.054 109.451 185.602 109.482C185.622 109.563 185.602 109.624 185.591 109.686C188.29 108.89 190.441 106.801 191.852 103.518C192.045 103.375 192.237 103.222 192.42 103.069C196.205 99.6438 196.996 94.0571 197.372 88.9597C197.838 82.5573 198.041 76.1346 197.98 69.7119L197.991 69.7017ZM173.466 60.2002C173.547 59.7007 173.903 59.9555 173.903 60.2002C173.821 60.6997 173.466 60.4449 173.466 60.2002ZM177.809 61.077C176.805 61.2095 177.322 59.8128 176.51 59.772C177.19 58.3855 179.118 60.3225 177.809 61.077ZM183.461 58.0287C184.597 58.1918 184.678 59.4254 186.505 58.8953C186.231 61.1279 183.623 59.5579 183.461 58.0287ZM185.196 63.697C185.652 62.4634 185.652 61.8823 185.196 60.6386C186.586 60.2614 186.555 61.3114 186.931 61.9435C186.779 62.9528 186.647 63.9825 185.196 63.6868V63.697ZM168.687 104.69C167.876 105.547 166.597 104.945 166.952 103.385C168.089 103.263 168.819 103.548 168.687 104.69ZM186.068 95.9635C186.078 95.5353 186.596 95.627 186.941 95.5251C186.931 95.9533 186.403 95.8615 186.068 95.9635ZM189.112 75.9002C189.183 75.3904 189.904 75.5331 190.411 75.4618C190.34 75.9715 189.62 75.8288 189.112 75.9002ZM192.593 68.0502C194.307 69.192 192.552 71.6082 190.858 70.2319C190.289 68.356 192.095 68.8556 192.593 68.0502ZM193.465 72.8519H191.73V73.7287H190.858V72.8519H191.73C191.497 72.5053 191.274 72.1485 191.294 71.547C191.801 71.18 192.461 70.9761 193.465 71.1086V72.8519Z" fill="#D46318"/>
<path d="M55.45 89.6325C55.3891 87.3183 55.3181 85.0041 55.2572 82.6797L52.9743 83.1283C42.9697 84.4332 32.8942 85.0959 22.8085 85.106C22.3519 87.5426 22.5447 90.1117 23.3564 92.4565C32.4883 91.6001 41.7217 91.7326 50.8232 92.8439C52.406 93.0376 54.3846 93.0682 55.1456 91.6613C55.4703 91.0496 55.4602 90.3258 55.4399 89.6325H55.45Z" fill="#D46318"/>
<path d="M16.8137 85.2182C12.7551 84.5759 12.7246 84.0866 8.63558 84.4128C5.97718 84.6473 2.95351 89.2961 4.28271 91.6205C5.60176 93.9449 8.43265 94.9644 11.091 95.1989C13.0493 95.3722 15.3222 95.0561 16.4078 93.4148C17.94 91.0904 16.1034 87.9096 16.8239 85.2182H16.8137Z" fill="#D46318"/>
<path d="M33.6455 -5.91325e-05C33.6455 6.47362 32.783 11.6832 33.9194 16.3931C34.8225 20.1142 37.5012 25.0383 40.606 26.2209C46.7548 28.5657 53.7255 28.8002 60.3918 29.6361C61.3456 29.7585 62.482 28.3414 64.0649 27.2812C57.1043 24.4266 50.8033 21.8473 44.5023 19.2681L44.7458 17.9937C47.2621 18.687 49.8191 19.2783 52.2948 20.0938C54.8518 20.9298 57.2869 22.1736 59.8743 22.9076C68.4888 25.3645 72.9228 21.6842 72.7909 12.2643C60.3106 7.25862 45.4763 10.6637 33.6556 -0.0102539L33.6455 -5.91325e-05ZM35.3095 14.4052C35.5632 13.0085 34.4876 13.0594 35.3095 12.2235C36.6793 12.0094 37.004 12.8454 37.9172 13.09C37.5519 14.028 36.8518 14.6294 35.3095 14.395V14.4052ZM61.376 27.9234V29.2284C60.4324 29.3099 59.9961 28.8715 60.0773 27.9234H61.376ZM42.3715 16.7907C44.9183 17.3718 40.7988 18.8501 42.3715 16.7907V16.7907ZM43.2441 15.0474H44.9792C45.3242 16.7296 42.8991 16.7296 43.2441 15.0474ZM50.6308 13.3041V11.9992C51.1381 12.0706 51.4019 11.9074 51.5034 11.5608C52.3354 12.3662 51.8484 12.356 53.2385 11.9992C53.1674 12.5089 53.3298 12.774 53.6748 12.8657C52.6804 13.926 52.1325 13.3959 50.6308 13.3041Z" fill="#8B705C"/>
<path d="M165.511 62.7488C166.029 58.9156 166.069 55.1027 164.781 51.402C164.781 51.4326 164.781 51.453 164.781 51.4734C163.634 51.6059 163.36 50.8719 163.482 49.7301C163.746 49.6995 163.949 49.7301 164.131 49.7709C163.269 47.9154 162.051 46.0803 160.337 44.2759C159.312 43.1952 159.2 40.9422 159.2 39.2295C159.2 34.3767 159.139 29.4731 159.728 24.6713C160.184 21.0114 159.129 19.9715 155.568 19.6249C146.142 18.7176 136.726 17.6675 127.32 16.6378C127.279 16.9131 127.188 17.1884 126.995 17.4432C125.889 17.5656 125.351 17.117 125.077 16.3932C118.918 15.7203 112.749 15.0678 106.58 14.4765C102.623 14.0993 98.5745 14.8028 94.5666 14.9761C93.4606 15.0271 92.3242 15.0678 91.2588 14.8639C87.4335 14.1095 83.659 12.9167 79.8033 12.5905C78.5147 12.4784 76.0897 14.2523 75.8259 15.5062C74.0807 23.9883 68.1246 28.6677 61.4583 32.9903C60.048 33.9078 58.6376 35.8142 58.4245 37.425C57.3896 45.5298 56.6286 53.6856 56.0198 61.8415C55.4922 68.8861 57.765 71.659 65.4358 73.8713C66.5823 68.7943 68.3479 64.0639 63.2644 59.5986C60.0074 56.7441 62.4933 40.8198 66.0141 38.4547C66.6128 38.0469 67.5057 37.792 68.2058 37.8736C77.7639 38.995 87.3828 39.7902 96.8293 41.5539C100.482 42.2369 103.485 44.8366 102.633 50.0869C100.695 61.9332 99.376 73.8815 97.7424 86.3497C101.639 87.3896 105.028 88.4091 108.457 89.2042C114.109 90.5194 115.6 89.3572 116.524 83.4136C116.97 80.5387 117.812 77.6943 118.005 74.8092C118.269 70.9148 118.066 66.9796 118.066 62.0861C118.736 61.8109 119.243 61.4847 119.618 61.1176C119.568 60.873 119.558 60.5671 119.618 60.2205H120.268C121.029 58.4874 119.852 56.1732 118.218 53.7978C123.373 50.6578 119.192 47.4668 118.117 43.8069C118.431 43.8273 118.746 43.8477 119.06 43.8681C119.669 43.552 120.704 43.5113 121.161 44.0006C121.374 44.0108 121.587 44.0312 121.79 44.0414V43.6438C122.845 43.3176 123.505 43.654 123.768 44.1637C127.208 44.388 130.567 44.6021 133.915 44.806C145.127 45.4789 149.784 46.845 151.611 52.7885C151.661 52.7885 151.712 52.7885 151.773 52.7885V53.339C152.493 56.0203 152.706 59.5782 152.717 64.3188C152.727 68.8555 152.97 73.1883 147.369 75.3292C144.559 76.4098 145.025 81.9456 147.623 83.6889C154.604 88.3887 161.057 85.9419 162.853 77.8982C162.894 77.7045 163.005 77.5312 163.015 77.3375C163.391 73.2392 164.466 69.0798 165.187 64.9509C163.533 64.8897 162.965 65.9092 161.757 66.2966C161.605 64.6858 162.833 64.4717 163.928 64.1149C163.878 63.0343 163.117 62.7692 163.928 61.9332C164.476 62.1881 165.004 62.4634 165.532 62.7386L165.511 62.7488ZM57.5824 55.1741C57.3693 55.2353 56.6083 54.5726 56.7097 54.2973C57.2982 52.7171 58.7188 54.8173 57.5824 55.1741ZM59.6421 42.7569C58.2926 42.9607 58.0897 41.6558 58.7796 41.0135C59.5406 41.1155 59.774 41.768 59.6421 42.7569ZM63.1224 60.6385C64.0762 60.6997 64.0559 61.7395 63.995 62.8202C63.2137 62.759 63.0716 63.3503 62.2599 63.2585C62.0468 61.8823 62.8789 61.556 63.1224 60.6385ZM82.2385 27.9337C80.9397 29.1061 79.6004 27.6788 79.6308 26.1903C81.1934 26.068 82.6342 26.0782 82.2385 27.9337ZM87.0175 35.3452C86.0739 35.2841 86.084 34.2442 86.1449 33.1636C87.1494 33.0208 87.809 33.2349 88.3163 33.6019C88.7019 34.9986 87.19 34.5093 87.0175 35.3452ZM92.9837 27.2914C92.4358 27.22 91.898 27.1487 91.3501 27.0773C91.4617 23.3562 90.995 20.5628 87.7684 21.3172C87.9206 21.5211 88.0931 21.7046 88.3163 21.827C87.9612 22.6426 87.7582 23.5907 87.0175 24.0087C86.1957 23.7742 85.9318 22.979 85.7898 22.0615C85.7188 22.092 85.6579 22.1226 85.5767 22.1634C84.7751 22.5712 83.1212 21.7862 82.1472 21.1235C81.7718 20.8687 81.8529 18.9622 82.3197 18.6156C83.1212 18.0243 84.4403 17.7491 85.4448 17.902C87.3321 18.1976 89.2193 18.7482 90.9848 19.4924C92.6083 20.1754 95.2667 21.1541 95.3479 22.1736C95.4798 23.8048 93.8563 25.5787 92.9736 27.2914H92.9837ZM96.1393 23.5703C96.2205 23.0707 96.5756 23.3256 96.5756 23.5703C96.4944 24.0698 96.1393 23.815 96.1393 23.5703ZM99.1833 20.9502C98.1686 24.6611 95.6725 18.8909 99.1833 20.9502V20.9502ZM97.0119 33.1636C97.9352 32.9597 97.8439 33.7855 97.8845 34.4685C97.5294 34.3869 97.4482 34.0301 97.0119 34.0301V33.1636ZM97.8845 38.3935C97.3569 35.7938 101.05 35.5593 100.928 37.9551C100.096 38.8421 99.1833 38.9644 97.8845 38.3935ZM110.913 47.5484C111.674 47.6503 111.907 48.3028 111.785 49.2917H110.487C110.304 48.3844 110.781 48.1397 110.923 47.5484H110.913ZM107.443 78.0817V76.7768C108.346 76.5933 108.589 77.0725 109.178 77.2152C109.076 77.9798 108.427 78.2041 107.443 78.0919V78.0817ZM108.315 75.0335V73.7286C109.228 73.5451 109.462 74.0242 110.05 74.167C110.487 75.4821 109.076 74.9418 108.315 75.0437V75.0335ZM110.487 74.5951C110.152 74.2077 110.02 73.6062 110.05 72.8518H111.785C111.907 73.9936 111.623 74.7277 110.487 74.5951ZM111.785 50.1685C112.648 49.4446 112.343 50.2092 113.52 50.1685C113.865 51.8506 111.44 51.8506 111.785 50.1685ZM122.216 20.0735C120.735 20.257 119.74 19.9409 120.045 18.3302C121.526 18.1467 122.52 18.4627 122.216 20.0735ZM125.696 37.9551C124.083 38.4139 124.296 37.0376 123.525 36.6502C124.113 34.4685 126.985 36.956 125.696 37.9551ZM149.155 37.9551C147.704 38.3935 147.735 37.3536 147.856 36.2118H149.155V37.9551ZM152.199 77.205C151.976 76.9807 152.514 76.6443 152.635 76.7666C152.859 76.9909 152.321 77.3273 152.199 77.205ZM162.193 67.1733C163.33 67.051 164.06 67.3365 163.928 68.4783C162.701 68.9268 162.082 68.9778 162.193 67.1733ZM150.028 36.64C151.347 35.0292 151.489 37.9653 150.028 36.64V36.64ZM150.9 33.5918C151.682 32.8068 153.082 33.6223 152.635 35.3351C151.529 35.2841 150.951 34.703 150.9 33.5918ZM152.635 37.9551V37.0886C153.508 36.9356 153.995 37.1803 153.934 37.9551H152.635ZM153.508 28.8002C153.011 28.7186 153.264 28.3618 153.508 28.3618C153.883 26.6695 151.611 27.6482 152.209 25.7418C153.549 25.4155 153.041 26.9346 154.381 26.6083C154.452 27.689 153.701 27.954 153.508 28.79V28.8002ZM154.817 83.75C154.898 83.3932 155.253 83.3117 155.253 82.8835H156.126C156.329 83.8112 155.507 83.7093 154.827 83.75H154.817ZM156.116 55.8368C154.756 56.0406 154.726 54.909 154.817 53.6551C155.72 53.4716 155.963 53.9507 156.552 54.0934C156.735 55.0008 156.258 55.2455 156.116 55.8368ZM154.817 24.4368C156.207 24.0596 156.156 25.1199 156.988 25.3136C156.806 26.7918 154.157 26.3331 154.817 24.4368ZM160.032 64.5635H159.16V63.2585C159.728 63.4115 159.839 64.0232 160.468 64.1353C160.55 64.5023 160.296 64.5431 160.032 64.5737V64.5635Z" fill="#8B705C"/>
<path d="M131.094 102.305C129.196 101.499 126.101 100.531 124.042 100.51C121.982 100.49 109.593 105.526 109.603 105.496C103.647 106.158 101.699 105.995 96.7373 103.997C91.7756 101.999 89.6347 98.5122 85.5659 97.6354C81.4972 96.7689 76.8602 99.0117 73.1161 101.673C72.3754 102.203 71.6956 102.753 71.0462 103.334C71.1984 103.406 71.3405 103.487 71.4724 103.579C71.2187 104.456 70.823 105.169 69.4329 104.904C64.8467 109.92 63.2739 116.475 64.7756 123.836C64.8365 124.142 64.9278 124.427 64.9988 124.713C65.4656 124.784 65.7091 125.07 66.1454 125.172C66.115 125.773 65.9222 126.211 65.5772 126.497C68.124 132.746 74.3337 134.326 80.5535 135.285C91.8568 137.028 103.231 138.292 114.575 139.76C114.605 139.638 114.626 139.516 114.656 139.393C118.339 139.23 122.053 139.301 125.696 138.843C132.098 138.048 137.608 133.807 140.489 128.046C140.347 127.771 140.296 127.394 140.428 126.915C140.662 126.823 140.885 126.752 141.108 126.691C141.758 125.131 142.214 123.469 142.458 121.756C143.696 112.826 139.87 106.016 131.083 102.294L131.094 102.305ZM92.151 101.632C92.2525 103.181 92.0394 102.6 90.487 102.509C90.1522 102.121 90.0203 101.52 90.0507 100.765C90.558 100.266 91.0755 101.581 92.1409 101.642L92.151 101.632ZM81.8016 100.755C82.9481 100.623 83.2221 101.357 83.1003 102.498H81.3653C81.1826 101.591 81.6595 101.346 81.8016 100.755ZM77.4588 99.8885H78.3314V100.755H77.4588V99.8885ZM85.2717 130.85C85.4645 130.218 85.6572 130.891 86.1443 130.85C86.0428 131.401 85.2818 131.288 85.2717 130.85ZM103.515 131.727C103.312 130.799 104.134 130.891 104.814 130.85C104.621 131.39 104.256 131.747 103.515 131.727ZM116.98 136.957C115.975 137.099 115.316 136.885 114.808 136.518C114.961 135.947 115.569 135.835 115.681 135.213C116.32 135.591 117.365 135.56 116.98 136.957ZM125.239 133.908C124.478 133.511 124.529 132.298 123.504 132.165C123.433 131.217 125.046 131.971 125.675 131.727C125.817 132.736 125.604 133.399 125.239 133.908ZM130.16 121.919C129.409 125.773 127.4 128.556 123.808 130.177C123.879 130.228 123.94 130.33 123.94 130.422C123.859 130.921 123.504 130.667 123.504 130.422C123.504 130.371 123.524 130.32 123.545 130.289C120.957 131.39 117.599 131.91 113.296 131.788L82.664 126.772C78.1589 125.967 75.7542 122.745 75.2164 118.208C74.6381 113.417 76.0687 109.339 79.5896 106.872C78.8895 106.719 78.6155 106.138 78.7576 105.139C79.894 104.965 80.4825 105.353 80.5231 106.281C80.8985 106.067 81.3044 105.903 81.7001 105.689C85.3224 103.64 88.4273 111.5 97.3664 112.499C108.457 113.733 112.596 113.539 114.981 113.223C116.726 112.989 117.842 111.164 122.185 109.502C129.064 106.872 131.489 115.119 130.16 121.93V121.919ZM138.277 124.315C138.47 123.683 138.663 124.356 139.15 124.315C139.038 124.866 138.287 124.754 138.277 124.315ZM141.758 118.647C140.611 118.779 140.327 118.045 140.459 116.904H142.194C142.377 117.811 141.9 118.056 141.758 118.647Z" fill="#D46318"/>
<path d="M158.763 112.958C157.22 111.592 156.043 110.277 155.232 108.982C155.232 109.002 155.232 109.013 155.232 109.033C153.75 109.217 152.756 108.901 153.06 107.29C153.578 107.229 154.034 107.229 154.399 107.32C153.446 104.802 154.024 102.345 156.409 99.7762C159.513 96.4119 159.95 93.2312 158.458 89.347C140.255 86.0744 139.291 84.7899 143.928 69.5283C149.428 72.811 150.138 69.2938 149.874 65.0222C149.641 61.3419 149.184 57.6616 148.464 54.0526C148.21 52.7885 146.749 51.5345 146.018 50.719C141.686 45.8764 132.99 47.8644 126.456 46.4983C126.294 47.5382 126.131 48.5781 125.969 49.6281C125.502 55.1945 129.266 50.2806 131.763 49.5568C138.611 47.5688 144.912 50.4539 147.053 55.1129C148.971 59.2928 147.855 62.9119 145.004 65.8378C145.704 65.797 145.633 66.5412 145.673 67.1631C145.318 67.0816 145.237 66.7247 144.811 66.7247V66.0417C144.608 66.2456 144.395 66.4393 144.172 66.633C139.261 70.976 129.51 69.7016 123.696 63.809C122.641 68.9982 121.667 73.7897 120.865 77.7249C123.148 79.0808 125.756 79.6007 125.644 80.5692C125.533 81.5378 122.326 81.8538 119.932 82.7815C119.079 85.1161 118.785 89.6834 116.472 91.2432C113.884 92.9865 109.176 92.9967 105.909 92.0078C98.36 89.7242 95.5393 90.081 95.0827 86.1254C94.9914 86.054 94.9102 85.9725 94.8392 85.9011C94.8189 85.687 94.9001 85.5647 95.032 85.4933C94.9407 83.699 95.2247 81.1198 95.7219 77.2865C96.7975 68.988 97.7107 60.6691 98.4919 52.3399C98.9485 47.4566 97.1425 44.0822 91.7343 43.4297C85.3927 42.6651 79.0917 41.5844 72.74 40.9116C71.1571 40.7485 69.0365 41.1155 67.9001 42.1044C65.7186 43.9802 65.0083 48.6086 65.5055 52.7783C65.5968 52.7783 65.678 52.7681 65.7287 52.7477C66.8245 52.3603 67.3217 51.8098 69.1988 52.3093C68.8234 53.7774 67.1391 54.4299 65.749 54.3585C66.2056 56.6319 67.0478 58.6199 68.2349 59.7515C69.3815 60.8424 70.9745 62.5245 70.8324 63.7479C70.2845 68.3049 69.0974 72.7804 68.0624 77.7147C64.9779 77.1948 62.4006 76.7564 59.3059 76.2263C57.4795 85.1773 61.3352 95.0152 54.9125 102.865C54.9328 103.13 54.9125 103.426 54.8617 103.773H54.5675C54.5776 103.956 54.5979 104.16 54.6081 104.323C55.0342 114.049 53.2789 123.622 57.1244 133.49C60.7467 142.768 64.4401 148.008 73.7039 149.099C80.6137 149.914 87.6047 150.669 94.3116 152.422C109.369 156.357 124.457 157.815 139.586 153.686C141.371 153.197 143.309 152.147 144.953 150.832C144.852 150.607 144.781 150.342 144.791 149.996C145.146 149.69 145.673 149.557 146.343 149.567C147.104 148.772 147.764 147.926 148.19 147.06C148.423 146.591 148.636 146.111 148.859 145.642C148.575 145.123 148.717 144.297 149.133 143.899C149.286 143.991 149.418 144.103 149.529 144.225C153.06 136.559 155.881 128.525 158.935 120.625C159.28 119.727 158.793 118.524 158.763 117.464C158.722 116.19 158.763 114.915 158.763 112.927V112.958ZM147.398 66.2966C148.535 66.1742 149.57 66.1538 149.133 67.6015C147.997 67.7238 147.266 67.4384 147.398 66.2966ZM57.0331 124.743C57.2563 124.967 56.7186 125.304 56.5968 125.182C56.3736 124.957 56.9113 124.621 57.0331 124.743ZM58.3319 129.973C57.4491 129.841 57.1751 129.096 56.5968 128.668C56.6374 127.557 58.2202 127.639 58.7682 128.23C58.8189 129.015 58.2405 129.147 58.3319 129.973ZM153.476 119.503V120.38H152.604V119.503H153.476ZM154.785 95.9532C154.592 96.4935 154.227 96.8503 153.476 96.8299C153.273 95.9022 154.095 96.0041 154.785 95.9532ZM150.442 89.8465C151.305 89.0411 153.638 89.194 153.05 91.1514C152.147 92.0995 151.812 90.9373 150.442 91.1514V89.8465ZM149.57 104.242C148.21 104.741 148.514 103.558 147.835 103.365C147.967 102.437 149.894 103.273 149.57 104.242ZM145.663 107.728C146.313 107.035 148.139 107.086 147.835 108.595C147.185 109.288 145.359 109.237 145.663 107.728ZM145.663 109.91C146.201 110.104 146.556 110.471 146.536 111.215C145.836 111.337 145.785 110.807 145.237 110.776C145.318 110.42 145.673 110.338 145.673 109.9L145.663 109.91ZM139.149 101.183H137.84V100.317C138.713 100.164 139.2 100.408 139.149 101.183ZM137.414 71.5265C137.404 71.9547 136.887 71.8629 136.542 71.9649C136.552 71.5367 137.079 71.6284 137.414 71.5265ZM136.115 80.6814C137.029 80.4979 137.262 80.977 137.85 81.1198C137.911 82.4859 136.734 82.6184 135.679 82.8631C135.537 81.8538 135.75 81.1911 136.115 80.6814ZM135.243 76.318C134.38 77.0419 134.685 76.2773 133.508 76.318C133.163 74.6359 135.588 74.6359 135.243 76.318ZM132.635 72.393C133.538 72.2095 133.782 72.6887 134.37 72.8314C134.756 74.2281 133.244 73.7388 133.061 74.5747C131.955 74.5339 132.036 72.9538 132.625 72.393H132.635ZM130.027 96.8197C131.935 96.8809 131.418 99.6641 129.155 99.0014C128.779 97.6149 129.53 97.3498 130.027 96.8197ZM125.685 86.7881C125.867 85.738 124.893 85.8399 125.248 84.6064H126.547C127.542 85.0957 126.466 86.1254 126.547 86.3497C126.71 86.8084 127.816 87.1041 127.846 87.2264C128.079 88.042 127.684 88.9188 127.846 90.2849C125.918 90.764 125.685 89.5406 124.376 89.4081C124.366 88.0828 124.122 86.5332 125.675 86.7881H125.685ZM84.2868 45.3667C90.7603 45.7541 95.3059 49.1286 95.1842 53.4512C95.0218 58.8952 88.1425 64.1761 81.6385 63.86C77.9452 63.6765 75.2969 62.3206 73.8764 59.9656C73.6532 59.8739 73.5111 59.6802 73.5618 59.3845C72.9226 58.0694 72.6081 56.4994 72.6791 54.6745C72.9023 48.6086 77.4581 44.9589 84.2969 45.3667H84.2868ZM80.9384 82.4247H82.6735C83.1808 83.9335 80.2484 84.4535 80.9384 82.4247ZM74.9621 63.8804H76.2608V66.0621C74.9925 66.5107 74.0895 66.6534 74.9621 68.2438C73.8054 68.2438 72.4762 68.4069 71.9181 67.8054C72.3341 65.899 74.6069 65.8582 74.9621 63.8804ZM75.7231 78.0613C75.4998 77.8371 76.0376 77.5006 76.1594 77.623C76.3826 77.8472 75.8448 78.1837 75.7231 78.0613ZM71.0556 75.6554C71.7659 76.2671 72.5675 78.4997 70.6193 78.2754C70.3048 76.9399 71.0658 76.685 71.0556 75.6554ZM70.6193 85.687H69.3206C69.4829 84.9428 68.9756 84.8613 68.448 84.8103C68.0726 83.2505 70.6193 84.8714 70.6193 85.687ZM63.5573 97.2581C64.0951 97.4518 64.4502 97.8188 64.4299 98.563C62.9283 98.9402 62.9384 97.8902 63.5573 97.2581ZM64.4299 138.69C65.4345 138.547 66.1041 138.761 66.6013 139.128C66.5607 140.423 64.0139 140.29 64.4299 138.69ZM77.8944 141.748H77.0218C76.9001 141.045 77.4378 140.994 77.4581 140.443C78.3612 140.688 78.3815 141.126 77.8944 141.748ZM138.713 139.128C138.49 138.904 139.027 138.567 139.149 138.69C139.372 138.914 138.835 139.25 138.713 139.128ZM143.928 136.946C141.645 137.67 141.929 134.377 142.629 133.46C144.253 133.399 144.679 135.988 143.928 136.946ZM146.972 116.016C146.576 116.302 146.069 116.485 145.379 116.485C145.531 117.627 145.572 118.749 145.471 119.85C145.105 123.846 143.949 127.567 142.193 130.748V131.278H141.889C138.256 137.507 132.219 141.565 124.995 141.34C109.176 140.861 93.3984 138.945 77.6103 137.619C77.0421 137.568 76.3116 136.967 75.9666 137.171C74.6475 137.945 73.5618 138.231 72.6182 138.19C72.4965 138.914 72.3037 138.924 72.6892 139.995C71.6847 138.802 70.2236 140.759 69.209 139.556C69.0568 138.272 69.6047 137.691 70.5077 137.456C69.2394 136.59 68.1943 135.081 67.0173 133.541C65.3533 131.37 60.6859 126.466 61.0714 125.6C60.3815 125.518 59.9857 125.151 60.0872 124.284C60.6757 124.223 61.2338 124.193 61.5686 124.366C61.7107 123.958 61.8426 123.55 61.944 123.153C61.6701 123.296 61.4266 123.459 60.9497 123.408V121.664C61.4671 121.613 61.8933 121.644 62.1977 121.797C62.5934 118.677 62.1977 115.7 62.36 112.204C62.4818 109.584 63.5878 107.534 66.4085 103.854C63.9632 103.059 62.3195 102.519 59.0624 101.458C62.0962 100.286 64.3792 98.6344 65.262 99.1951C69.3307 101.795 71.5122 98.2368 74.333 97.1358C88.7512 91.5082 88.1729 96.8707 101.993 102.141C111.297 105.699 112.251 94.1589 131.834 100.235C137.942 102.131 143.401 107.973 145.004 114.579C145.075 114.487 145.146 114.375 145.217 114.253C145.866 114.773 147.155 114.63 146.952 115.996L146.972 116.016ZM147.845 126.925C149.834 125.304 152.056 128.729 150.016 129.973C148.931 129.31 148.027 128.474 147.845 126.925ZM150.452 124.743C152.441 125.039 150.107 127.384 150.452 124.743V124.743ZM149.58 136.08C150.118 136.273 150.473 136.641 150.452 137.385C148.941 137.762 148.961 136.712 149.58 136.08ZM151.325 135.203H150.452V134.326H151.325V135.203ZM148.717 122.551C150.047 122.674 151.68 122.48 151.761 123.856C150.98 124.519 148.626 124.101 148.717 122.551ZM154.805 122.99C152.938 123.122 151.295 123.02 151.335 121.246C151.883 121.838 153.466 121.919 153.507 120.808C154.268 121.206 155.018 121.624 154.816 122.99H154.805Z" fill="#D46318"/>
<path d="M23.2856 69.875C24.1582 69.5692 25.0511 69.2123 25.8222 68.7026C28.9473 66.6942 29.1401 63.6358 28.8763 60.2919C28.1661 51.2491 27.5471 42.1962 26.9891 33.1432C26.776 29.6362 26.918 26.1088 26.7151 22.6018C26.6035 20.7566 26.2179 18.9011 25.7512 17.1069C25.528 16.2607 25.1119 15.3024 23.7625 15.5063C22.6463 15.6796 22.0071 16.2403 21.8853 17.2904C21.6012 19.8594 21.2157 22.4387 21.2055 25.018C21.1751 30.0644 21.3577 35.1006 21.4693 40.147C21.5606 44.5002 21.7128 48.8534 21.7534 53.2065C21.7534 53.8998 21.3171 54.593 21.0838 55.2863L20.5866 55.1741C20.4648 54.7765 20.2517 54.3891 20.2315 53.9813C19.7241 45.3464 19.2168 36.7216 18.7501 28.0866C18.6587 26.2821 18.953 24.4471 18.6993 22.6732C18.4659 21.0318 17.8369 19.4109 17.2179 17.8511C16.741 16.6583 15.5133 16.4748 14.5088 16.8928C13.971 17.117 13.484 18.055 13.4231 18.7074C13.21 20.9095 13.0578 23.1422 13.139 25.3544C13.4231 33.4899 13.8087 41.6253 14.1638 49.7607C14.2247 51.1982 14.3667 52.6356 14.3972 54.0731C14.3972 54.4095 14.1029 54.746 13.9406 55.0824C13.6565 54.7969 13.1492 54.5319 13.1086 54.2056C12.6114 50.668 12.0736 47.1407 11.7591 43.5827C11.059 35.4982 10.5009 27.4036 9.82108 19.3293C9.72976 18.2385 9.28331 17.168 8.99921 16.0874C8.77598 16.0568 8.55276 16.0262 8.32953 15.9956C7.77147 16.8214 6.8177 17.5962 6.71623 18.473C6.52345 20.0022 6.33066 21.5416 6.19876 23.081C6.25964 23.0708 6.31037 23.0708 6.34081 23.1014C6.47271 23.2339 6.34081 23.4072 6.17846 23.499C6.06685 24.9772 6.00597 26.4555 6.08714 27.9133C6.42198 33.7957 7.18297 39.6577 7.71059 45.5401C7.98455 48.6393 8.1469 51.7487 8.35997 54.8887C7.13224 54.7052 6.5133 54.0527 6.32052 52.8089C5.99583 50.7598 5.6407 48.7208 5.41747 46.6615C4.69707 39.882 4.02739 33.0923 3.35772 26.3025C3.1345 24.0699 2.86054 21.8474 2.75907 19.6046C2.69819 18.2283 2.17057 17.4535 0.780493 17.2802C-0.426947 18.0856 0.151407 19.2478 0.1717 20.3182C0.222433 22.4183 0.252872 24.5286 0.293458 26.6288C0.770347 26.9142 1.16606 27.271 1.11533 28.0968H0.313752C0.364484 30.5538 0.425364 33.0107 0.46595 35.4676C0.506536 37.9042 0.526829 40.3509 0.547122 42.7875C1.31826 43.0933 1.20665 44.3983 0.668881 44.8978C0.628295 44.8978 0.597855 44.8774 0.567416 44.8774C0.567416 45.3566 0.567416 45.8255 0.577562 46.3047C0.638442 50.6069 0.618148 54.9193 0.82108 59.2215C0.922545 61.3216 1.38929 63.4217 1.79515 65.5014C1.86618 65.8583 1.97779 66.2049 2.09955 66.5413C2.21116 66.0723 2.3735 65.6442 2.40394 65.4097C2.99244 66.5821 3.93607 67.102 3.27655 68.4579C3.23596 68.4579 3.20552 68.4579 3.17508 68.4477C4.54487 70.2114 6.70608 71.3736 9.09053 71.6999C11.0995 71.9751 12.2055 72.546 12.3171 74.8806C12.3679 76.104 12.4896 77.3274 12.6621 78.5406C12.8245 79.7232 13.0071 80.9159 13.1897 82.0985C14.8944 82.0272 15.6351 82.3228 17.0353 83.7501C19.1661 85.9216 20.4953 90.3053 18.679 93.0477C17.8267 94.3425 16.3352 94.9338 14.7625 95.1275C15.0161 99.1238 15.0973 103.13 15.2901 107.137C15.6148 114.069 15.9293 120.992 16.2641 127.924C16.2946 127.812 16.3149 127.69 16.3149 127.547C18.0702 126.945 17.6847 128.495 18.9225 128.424C19.2777 129.657 18.3137 129.555 18.4862 130.605C18.953 132.063 19.8053 130.636 21.0939 131.482C20.7286 133.144 19.1356 133.582 17.6136 134.102C16.9947 134.235 17.1063 135.101 16.6294 135.376C16.7309 137.303 16.8121 139.24 16.9237 141.167C16.9338 141.381 16.9541 141.605 16.9643 141.82C17.4006 141.503 17.8774 141.228 18.4761 141.075C18.6181 142.676 17.9992 143.502 17.6035 144.562C17.431 144.592 17.2788 144.582 17.1469 144.562C17.4614 148.517 17.8977 152.473 18.3442 156.418C18.6283 158.896 19.0139 161.363 19.4299 163.82C19.6125 163.85 19.7749 163.983 19.7749 164.177C19.6937 164.238 19.6024 164.289 19.5212 164.34C19.6328 165.002 19.7546 165.675 19.8763 166.338C19.9676 166.827 20.6779 167.582 21.0838 167.572C22.4941 167.531 22.7275 167.174 24.1379 167.011C26.0454 166.797 27.2833 165.747 27.7805 163.942C28.095 162.78 28.3791 161.526 28.3183 160.343C27.9428 153.9 27.5979 147.447 26.9789 141.024C26.1773 132.807 25.1018 124.621 24.1886 116.414C23.2145 107.667 22.4434 98.8995 21.2867 90.183C20.5764 84.8001 20.5054 79.5294 20.3025 73.9427C20.2213 71.6693 21.1446 70.5784 23.2754 69.8444L23.2856 69.875ZM2.41409 60.6283C2.19087 60.4041 2.72863 60.0676 2.85039 60.19C3.07362 60.4142 2.53585 60.7507 2.41409 60.6283ZM2.41409 55.1639C0.597856 54.8683 2.21116 52.4521 3.28669 53.859C3.1345 54.4299 2.5257 54.5421 2.41409 55.1639ZM5.45806 56.0407C6.88872 56.0611 7.12209 57.2845 7.19312 58.6608C6.11758 58.7219 5.10293 58.7321 4.58545 58.2224C5.0319 57.6515 5.01161 56.6116 5.45806 56.0407ZM5.89436 60.8424C6.04656 60.3123 7.05107 60.4856 7.19312 60.8424C7.58884 61.7803 5.60011 61.8517 5.89436 60.8424ZM8.06572 68.9167C7.28444 68.8657 7.15253 69.4468 6.33066 69.3551C5.19425 67.9992 6.31037 66.1131 6.76696 64.9917C8.03528 65.4607 8.17734 67.0714 8.06572 68.9167ZM8.06572 64.5533C8.1469 64.0538 8.50203 64.3087 8.50203 64.5533C8.41071 65.0529 8.06572 64.798 8.06572 64.5533ZM10.2371 61.0667C9.4761 60.9648 9.24272 60.3123 9.36448 59.3234C10.5821 59.252 10.785 60.557 10.2371 61.0667ZM14.1435 67.6118C12.1548 67.836 12.3882 66.1437 12.8346 64.9917C13.7681 65.3587 14.3667 66.0622 14.1435 67.6118ZM15.8786 51.2491C16.0003 50.2399 17.0353 50.2501 17.6136 50.8108C17.4919 51.8201 16.4569 51.8099 15.8786 51.2491ZM18.4862 145.887C19.1559 146.519 19.3994 147.59 19.3588 148.935C16.5685 149.139 18.2224 147.233 18.4862 145.887ZM18.9225 145.01C19.0037 144.654 19.3588 144.572 19.3588 144.134C19.8966 144.327 20.2517 144.694 20.2315 145.439C19.5313 145.561 19.4806 145.021 18.9225 145V145.01ZM20.2315 130.187C20.0082 129.963 20.546 129.627 20.6678 129.749C20.891 129.973 20.3532 130.31 20.2315 130.187ZM20.2315 127.129C20.2619 125.956 21.2258 125.029 21.9665 125.824C22.0984 126.976 21.3679 127.251 20.2315 127.129ZM21.9665 123.204C22.2811 124.386 19.9169 122.888 20.2315 124.081C19.5313 123.652 19.2371 122.918 19.7951 122.337C20.6272 122.521 20.5866 123.581 21.9665 123.214V123.204Z" fill="#8B705C"/>
<path d="M79.8031 110.827C76.2619 115.364 76.891 118.861 78.7478 122.939C81.5889 122.195 84.8967 121.532 87.2202 123.326C87.7783 123.754 88.2552 124.315 88.9046 124.6C90.8831 125.477 92.9023 123.387 95.0534 123.173C97.3668 122.949 99.2439 124.886 101.04 126.364C102.836 127.842 104.936 128.393 106.539 126.701C106.976 126.242 111.359 125.661 112.374 126.701C113.388 127.74 114.251 129.117 115.631 129.555C117.782 127.282 121.627 126.884 124.184 128.689C127.614 125.355 129.339 119.86 127.39 115.486C127.228 115.109 126.366 114.681 126.011 114.477C125.493 114.192 124.844 114.396 124.296 114.63C120.166 116.363 121.313 120.349 115.357 120.981C113.013 121.226 111.136 118.117 109.522 118.117C107.909 118.117 106.123 119.921 103.191 120.115C100.259 120.308 96.9102 118.606 95.2056 116.21C93.1357 117.281 92.4761 116.924 90.4062 117.994C89.5742 118.422 86.307 117.607 85.4446 117.25C84.7749 116.975 83.3138 115.639 82.9587 115.007C81.4976 112.387 81.9643 113.101 80.5032 110.481" fill="#D46318"/>
</g>
<defs>
<clipPath id="clip0_211_2707">
<rect width="198" height="190" fill="white"/>
</clipPath>
</defs>
</svg>
