<?xml version="1.0" ?><!DOCTYPE svg  PUBLIC '-//W3C//DTD SVG 1.1//EN'  'http://www.w3.org/Graphics/SVG/1.1/DTD/svg11.dtd'><svg enable-background="new 0 0 512 512" height="512px" id="Layer_3" version="1.1" viewBox="0 0 512 512" width="512px" xml:space="preserve" xmlns="http://www.w3.org/2000/svg" xmlns:xlink="http://www.w3.org/1999/xlink"><g><g><path d="M256,97.1c-42.8,0-77.6,34.8-77.6,77.6v147.7c0,3.3,2.7,6,6,6h50.1v64.9c0,11.9,9.6,21.5,21.5,21.5     c11.9,0,21.5-9.6,21.5-21.5v-64.9h50.1c3.3,0,6-2.7,6-6V174.8C333.6,131.9,298.8,97.1,256,97.1z M265.5,393.4     c0,5.2-4.3,9.5-9.5,9.5c-5.2,0-9.5-4.3-9.5-9.5v-64.9h19V393.4z M321.6,316.5h-50.1h-31h-50.1V174.8c0-36.2,29.4-65.6,65.6-65.6     c36.2,0,65.6,29.4,65.6,65.6V316.5z"/><path d="M234.4,154.4c-3.3,0-6,2.7-6,6v115.5c0,3.3,2.7,6,6,6c3.3,0,6-2.7,6-6V160.4C240.4,157.1,237.7,154.4,234.4,154.4z"/><path d="M277.6,154.4c-3.3,0-6,2.7-6,6v115.5c0,3.3,2.7,6,6,6s6-2.7,6-6V160.4C283.6,157.1,280.9,154.4,277.6,154.4z"/></g></g></svg>