<svg width="800" height="800" viewBox="0 0 800 800" fill="none" xmlns="http://www.w3.org/2000/svg">
<g clip-path="url(#clip0_133_158)">
<path d="M633.724 8.07293C639.323 2.01824 648.698 1.62762 654.753 7.22658C660.807 12.8255 661.198 22.2005 655.599 28.2552L533.724 160.156L533.529 160.417C518.62 178.451 508.398 195.117 503.841 210.352C499.805 223.828 500.391 236.068 506.38 246.745C509.57 252.474 508.529 259.505 504.297 264.128L446.419 326.758C440.755 320.573 436.263 315.56 433.268 312.305C431.901 310.482 430.339 308.724 428.711 307.031L428.581 307.161C427.799 306.315 426.953 305.534 426.107 304.753L475.586 251.172C469.792 235.677 469.857 219.206 475.195 201.693C480.924 182.682 493.099 162.435 510.612 141.341C511.003 140.82 511.328 140.299 511.784 139.844L633.594 7.94272L633.724 8.07293ZM371.94 361.393C366.471 355.273 366.992 345.833 373.112 340.365C379.232 334.896 388.672 335.417 394.141 341.536C455.404 410.156 644.792 613.216 697.266 689.128C766.471 787.109 659.31 817.969 623.763 782.292C534.961 696.419 346.419 477.474 263.542 384.635C233.724 397.266 204.753 399.219 175.651 390.885C144.336 381.966 113.672 361.068 82.5521 328.971L82.1615 328.581C58.4635 303.581 39.9089 278.906 26.4974 254.492C12.7604 229.362 4.36199 204.492 1.3672 179.818C-1.82291 153.255 0.651052 128.516 7.81251 106.576C16.2109 80.7943 31.1198 58.9844 50.6511 42.7735C70.3125 26.4974 94.4662 15.9505 121.419 12.6953C143.815 10.0261 168.229 12.3047 193.49 20.5729C228.451 31.9662 269.206 60.2865 302.995 96.6146C327.93 123.372 349.284 154.688 361.979 186.914C375.195 220.508 379.232 255.273 368.62 287.826C362.37 307.096 351.042 325.195 333.464 341.536C327.409 347.135 318.034 346.745 312.435 340.755C306.836 334.701 307.227 325.326 313.216 319.727C326.823 307.031 335.547 293.164 340.299 278.516C348.503 253.32 345.052 225.391 334.245 197.917C322.917 169.141 303.711 141.016 281.185 116.862C250.716 84.1797 214.583 58.8542 184.115 48.8932C163.216 42.1224 143.229 40.1693 124.935 42.3828C103.711 44.987 84.7005 53.125 69.5313 65.8203C54.2969 78.5156 42.6432 95.638 35.9375 116.016C30.1432 133.789 28.125 154.232 30.7943 176.302C33.3333 197.135 40.5599 218.424 52.4089 240.169C64.8438 262.5 81.901 285.091 103.841 308.203L103.971 308.398C131.445 336.719 157.813 354.948 183.919 362.37C208.594 369.401 233.724 366.667 259.961 353.581C265.951 350.13 273.698 351.302 278.451 356.641C359.31 447.201 555.99 675.13 643.099 759.57C680.924 775 701.888 755.99 683.789 722.461C655.599 670.117 413.411 408.008 371.94 361.393ZM293.424 492.318L103.581 697.721C103.19 698.112 102.865 698.503 102.409 698.893C74.6745 728.841 123.763 772.461 154.232 743.294L338.607 543.75L358.398 566.211L175.456 764.193C175.065 764.648 174.674 765.039 174.154 765.495C163.216 774.674 152.214 780.664 141.081 783.138C129.622 785.742 118.359 784.57 107.552 779.492C105.729 778.776 104.036 777.865 102.539 776.497L76.3021 752.214C75.9115 751.823 75.5208 751.497 75.1302 751.042C64.974 739.323 60.1563 726.823 61.4583 713.607C62.6953 701.107 69.3359 688.932 81.901 677.214L273.568 469.792L293.424 492.318ZM492.383 377.344L503.646 365.169C509.245 359.115 518.685 358.724 524.674 364.323C530.664 369.922 531.12 379.297 525.521 385.352L512.5 399.414L492.383 377.344ZM680.013 51.6276C685.612 45.5729 694.987 45.1823 701.042 50.7813C707.096 56.3802 707.487 65.7552 701.888 71.8099L595.052 187.5C589.453 193.555 580.078 193.945 574.023 188.346C567.969 182.747 567.578 173.372 573.177 167.318L680.013 51.6276ZM726.237 94.4011C731.836 88.3464 741.211 87.9557 747.266 93.5547C753.32 99.1537 753.711 108.529 748.112 114.583L641.341 230.208C635.742 236.263 626.367 236.654 620.312 231.055C614.258 225.456 613.867 216.081 619.466 210.026L726.237 94.4011ZM774.154 138.867C779.753 132.813 789.128 132.422 795.182 138.021C801.237 143.62 801.628 153.06 796.029 159.049L674.154 291.016C673.698 291.471 673.242 291.862 672.786 292.318C645.052 319.01 618.555 334.44 593.229 338.802C565.755 343.555 540.56 335.742 517.448 315.56C511.263 310.156 510.677 300.716 516.016 294.596C521.419 288.411 530.859 287.826 536.979 293.164C552.93 307.096 569.987 312.565 588.021 309.375C607.422 306.055 628.776 293.229 652.083 270.768L652.214 270.638L774.023 138.802L774.154 138.867Z" fill="#F2921D"/>
</g>
<defs>
<clipPath id="clip0_133_158">
<rect width="800" height="800" fill="white"/>
</clipPath>
</defs>
</svg>
