<svg width="349" height="241" viewBox="0 0 349 241" fill="none" xmlns="http://www.w3.org/2000/svg">
<path d="M274.214 240.188C315.518 240.188 349 208.695 349 168.375C349 128.055 315.518 96.5625 274.214 96.5625C265.427 96.5625 257.115 98.2867 249.286 100.96V96.5625C249.286 70.1564 271.644 48.6875 299.143 48.6875C312.908 48.6875 324.071 37.968 324.071 24.75C324.071 11.532 312.908 0.8125 299.143 0.8125C244.16 0.8125 199.429 43.7654 199.429 96.5625V168.375C199.429 208.695 232.926 240.188 274.214 240.188ZM0 168.375C0 208.036 33.4822 240.188 74.7857 240.188C116.089 240.188 149.571 208.036 149.571 168.375C149.571 128.714 116.089 96.5625 74.7857 96.5625C65.9984 96.5625 57.6863 98.2867 49.8571 100.96V96.5625C49.8571 70.1564 72.215 48.6875 99.7143 48.6875C113.48 48.6875 124.643 37.968 124.643 24.75C124.643 11.532 113.48 0.8125 99.7143 0.8125C44.7312 0.8125 0 43.7654 0 96.5625V168.375Z" fill="#F2921D" fill-opacity="0.2"/>
</svg>
