<svg width="238" height="42" viewBox="0 0 238 42" fill="none" xmlns="http://www.w3.org/2000/svg">
<path d="M22.575 4.55002L26.6 13.3C26.775 13.825 27.3 14.175 27.825 14.35L36.925 15.75C38.5 15.75 39.025 17.5 37.975 18.55L31.325 25.375C30.975 25.725 30.8 26.425 30.8 26.95L32.375 36.4C32.55 37.8 31.15 39.025 29.925 38.325L21.7 33.775C21.175 33.425 20.65 33.425 20.125 33.775L11.9 38.325C10.675 39.025 9.10002 37.975 9.45002 36.4L11.025 26.95C11.2 26.425 10.85 25.725 10.5 25.375L3.85002 18.55C2.97502 17.5 3.50002 15.75 4.90002 15.575L14 14.175C14.525 14.175 15.05 13.65 15.225 13.125L19.25 4.37502C20.125 3.15002 21.875 3.15002 22.575 4.55002Z" fill="#F2921D"/>
<path d="M71.575 4.55002L75.6 13.3C75.775 13.825 76.3 14.175 76.825 14.35L85.925 15.75C87.5 15.75 88.025 17.5 86.975 18.55L80.325 25.375C79.975 25.725 79.8 26.425 79.8 26.95L81.375 36.4C81.55 37.8 80.15 39.025 78.925 38.325L70.7 33.775C70.175 33.425 69.65 33.425 69.125 33.775L60.9 38.325C59.675 39.025 58.1 37.975 58.45 36.4L60.025 26.95C60.2 26.425 59.85 25.725 59.5 25.375L52.85 18.55C51.975 17.5 52.5 15.75 53.9 15.575L63 14.175C63.525 14.175 64.05 13.65 64.225 13.125L68.25 4.37502C69.125 3.15002 70.875 3.15002 71.575 4.55002Z" fill="#F2921D"/>
<path d="M120.575 4.55002L124.6 13.3C124.775 13.825 125.3 14.175 125.825 14.35L134.925 15.75C136.5 15.75 137.025 17.5 135.975 18.55L129.325 25.375C128.975 25.725 128.8 26.425 128.8 26.95L130.375 36.4C130.55 37.8 129.15 39.025 127.925 38.325L119.7 33.775C119.175 33.425 118.65 33.425 118.125 33.775L109.9 38.325C108.675 39.025 107.1 37.975 107.45 36.4L109.025 26.95C109.2 26.425 108.85 25.725 108.5 25.375L101.85 18.55C100.975 17.5 101.5 15.75 102.9 15.575L112 14.175C112.525 14.175 113.05 13.65 113.225 13.125L117.25 4.37502C118.125 3.15002 119.875 3.15002 120.575 4.55002Z" fill="#F2921D"/>
<path d="M169.575 4.55002L173.6 13.3C173.775 13.825 174.3 14.175 174.825 14.35L183.925 15.75C185.5 15.75 186.025 17.5 184.975 18.55L178.325 25.375C177.975 25.725 177.8 26.425 177.8 26.95L179.375 36.4C179.55 37.8 178.15 39.025 176.925 38.325L168.7 33.775C168.175 33.425 167.65 33.425 167.125 33.775L158.9 38.325C157.675 39.025 156.1 37.975 156.45 36.4L158.025 26.95C158.2 26.425 157.85 25.725 157.5 25.375L150.85 18.55C149.975 17.5 150.5 15.75 151.9 15.575L161 14.175C161.525 14.175 162.05 13.65 162.225 13.125L166.25 4.37502C167.125 3.15002 168.875 3.15002 169.575 4.55002Z" fill="#F2921D"/>
<path d="M218.575 4.55002L222.6 13.3C222.775 13.825 223.3 14.175 223.825 14.35L232.925 15.75C234.5 15.75 235.025 17.5 233.975 18.55L227.325 25.375C226.975 25.725 226.8 26.425 226.8 26.95L228.375 36.4C228.55 37.8 227.15 39.025 225.925 38.325L217.7 33.775C217.175 33.425 216.65 33.425 216.125 33.775L207.9 38.325C206.675 39.025 205.1 37.975 205.45 36.4L207.025 26.95C207.2 26.425 206.85 25.725 206.5 25.375L199.85 18.55C198.975 17.5 199.5 15.75 200.9 15.575L210 14.175C210.525 14.175 211.05 13.65 211.225 13.125L215.25 4.37502C216.125 3.15002 217.875 3.15002 218.575 4.55002Z" fill="#F2921D"/>
</svg>
