<svg width="48" height="30" viewBox="0 0 48 30" fill="none" xmlns="http://www.w3.org/2000/svg">
<g clip-path="url(#clip0_45_175)">
<path d="M12.0141 11.9834C8.68722 11.9834 5.99765 14.6721 5.99765 17.9885C5.99765 21.3049 8.68723 23.9936 12.0047 23.9936C15.3221 23.9936 18.0117 21.3049 18.0117 17.9885C18.0211 14.6721 15.3315 11.9834 12.0141 11.9834ZM12.0141 22.2886C9.6431 22.2886 7.71261 20.3681 7.71261 17.9885C7.71261 15.6089 9.63373 13.6884 12.0141 13.6884C14.3944 13.6884 16.3061 15.6183 16.3061 17.9885C16.3061 20.3587 14.385 22.2886 12.0141 22.2886Z" fill="white"/>
<path d="M12.0328 20.9677C13.6838 20.9677 15.0223 19.6297 15.0223 17.9792C15.0223 16.3287 13.6838 14.9907 12.0328 14.9907C10.3818 14.9907 9.04333 16.3287 9.04333 17.9792C9.04333 19.6297 10.3818 20.9677 12.0328 20.9677Z" fill="white"/>
<path d="M36.0047 11.9834C32.6872 11.9834 29.9977 14.6721 29.9977 17.9885C29.9977 21.3049 32.6872 23.9936 36.0047 23.9936C39.3221 23.9936 42.0117 21.3049 42.0117 17.9885C42.0117 14.6721 39.3221 11.9834 36.0047 11.9834ZM36.0047 22.2886C33.6337 22.2886 31.7032 20.3681 31.7032 17.9885C31.7032 15.6089 33.6244 13.6884 36.0047 13.6884C38.385 13.6884 40.2968 15.6183 40.2968 17.9885C40.2968 20.3587 38.3756 22.2886 36.0047 22.2886Z" fill="white"/>
<path d="M36.0234 20.9677C37.6745 20.9677 39.0129 19.6297 39.0129 17.9792C39.0129 16.3287 37.6745 14.9907 36.0234 14.9907C34.3724 14.9907 33.034 16.3287 33.034 17.9792C33.034 19.6297 34.3724 20.9677 36.0234 20.9677Z" fill="white"/>
<path d="M44.4576 9.48223L47.9906 5.97847H40.8309C36.82 2.71828 30.157 0.00146484 23.9813 0.00146484C17.7962 0.00146484 11.1894 2.71828 7.17845 5.97847H0L3.53299 9.48223C1.34947 11.6557 0 14.6629 0 17.9887C0 24.6215 5.37915 29.9989 12.0141 29.9989C15.0597 29.9989 17.843 28.8653 19.961 26.9917L24.0281 29.9802L28.0484 27.0572L28.0016 26.9448C30.1289 28.8372 32.9215 29.9895 35.9953 29.9895C42.6302 29.9895 48.0094 24.6121 48.0094 17.9793C48 14.6629 46.6412 11.6557 44.4576 9.48223ZM34.4865 6.07215C28.7981 6.78414 24.3374 11.4683 24 17.2673C23.6533 11.4589 19.1831 6.76541 13.476 6.07215C16.3436 4.01112 19.9984 2.99933 23.9813 2.99933C27.9641 2.99933 31.6189 4.01112 34.4865 6.07215ZM12.0141 27.001C7.0285 27.001 2.99883 22.9633 2.99883 17.9887C2.99883 13.0141 7.03788 8.97634 12.0141 8.97634C16.9902 8.97634 21.0293 13.0141 21.0293 17.9887C21.0199 22.9633 16.9902 27.001 12.0141 27.001ZM36.0047 27.001C31.0285 27.001 26.9895 22.9633 26.9895 17.9887C26.9895 13.0141 31.0285 8.97634 36.0047 8.97634C40.9809 8.97634 45.0199 13.0141 45.0199 17.9887C45.0105 22.9633 40.9809 27.001 36.0047 27.001Z" fill="white"/>
</g>
<defs>
<clipPath id="clip0_45_175">
<rect width="48" height="30" fill="white"/>
</clipPath>
</defs>
</svg>
