<svg width="37" height="48" viewBox="0 0 37 48" fill="none" xmlns="http://www.w3.org/2000/svg">
<g clip-path="url(#clip0_45_172)">
<path d="M0.942496 23.1107C0.15196 24.3579 -0.179427 28.2805 0.096063 30.8812C0.191886 31.7389 0.35159 32.455 0.579169 32.8838C0.894585 33.474 1.4256 33.8281 2.02849 33.8478C2.41577 33.8674 2.65932 33.8005 9.94583 31.491C9.94583 31.491 13.1838 30.472 13.1998 30.4641C14.0063 30.2596 14.5533 29.5278 14.6052 28.5953C14.6571 27.6353 14.158 26.7894 13.3276 26.4864C13.3276 26.4864 11.0438 25.5697 11.0398 25.5697C3.20631 22.3868 2.85496 22.2609 2.45969 22.2569C1.85281 22.2373 1.3178 22.5363 0.942496 23.1107ZM18.4621 46.8314C18.5898 46.4694 18.6058 46.2215 18.6258 38.6753C18.6258 38.6753 18.6417 35.3428 18.6457 35.3074C18.6976 34.4891 18.1626 33.7455 17.2843 33.411C16.3779 33.0687 15.4037 33.2812 14.8567 33.9501C14.8567 33.9501 13.2597 35.8189 13.2517 35.8189C7.76587 42.1691 7.5343 42.4641 7.40254 42.8379C7.31869 43.0582 7.29075 43.2943 7.3147 43.5304C7.34664 43.8687 7.50236 44.1992 7.75788 44.5101C9.03153 46.0012 15.1322 48.2123 17.0806 47.8819C17.7634 47.7678 18.2545 47.394 18.4621 46.8314ZM30.8432 44.2071C32.6837 43.4832 36.6963 38.455 36.9798 36.5153C37.0796 35.8425 36.864 35.2602 36.3929 34.8904C36.0855 34.6622 35.8499 34.5717 28.5634 32.215C28.5634 32.215 25.3693 31.1763 25.3254 31.1566C24.5508 30.8615 23.6684 31.1369 23.0775 31.8569C22.4587 32.5966 22.3668 33.5763 22.8619 34.312L24.1475 36.3737C28.4715 43.2943 28.8029 43.7822 29.1144 44.0222C29.5935 44.396 30.2043 44.4589 30.8432 44.2071ZM27.0781 26.392C35.3548 24.4169 35.6782 24.3107 36.0016 24.0982C36.5047 23.7638 36.7562 23.2091 36.7123 22.5323C36.7123 22.5127 36.7163 22.4891 36.7123 22.4655C36.5007 20.4589 32.9393 15.2497 31.1825 14.4038C30.5597 14.1087 29.9368 14.1284 29.4218 14.4707C29.1024 14.6753 28.8668 14.9861 24.435 20.9625C24.435 20.9625 22.4347 23.6497 22.4108 23.6773C21.8837 24.3107 21.8758 25.2156 22.3908 25.9946C22.9258 26.8012 23.8281 27.1907 24.6546 26.9664C24.6546 26.9664 24.6227 27.0255 24.6147 27.0333C25.0219 26.8799 25.7486 26.7028 27.0781 26.392ZM18.7695 19.6563C18.6258 16.4222 17.6396 2.02612 17.5238 1.3612C17.3561 0.755298 16.877 0.326446 16.1903 0.153331C14.0742 -0.362078 5.99714 1.86874 4.49991 3.38743C4.01681 3.88317 3.84113 4.48907 3.98487 5.02809C4.22043 5.50415 14.2299 21.0215 14.2299 21.0215C15.7072 23.3861 16.9169 23.0163 17.3122 22.8943C17.7035 22.7802 18.9053 22.4104 18.7695 19.6563Z" fill="white"/>
</g>
<defs>
<clipPath id="clip0_45_172">
<rect width="37" height="48" fill="white"/>
</clipPath>
</defs>
</svg>
