<?xml version="1.0" ?><svg data-name="Layer 1" id="Layer_1" viewBox="0 0 512 512" xmlns="http://www.w3.org/2000/svg"><title/><path d="M496.18,183s0-.07,0-.11a5.85,5.85,0,0,0,0-.59s0-.08,0-.12a6.1,6.1,0,0,0-.14-.72l0-.09a4.69,4.69,0,0,0-.2-.6l-.06-.14c-.08-.19-.17-.37-.27-.56a.47.47,0,0,0-.05-.1,7.33,7.33,0,0,0-.4-.63c-.15-.19-.31-.37-.48-.55l-.12-.12a4.48,4.48,0,0,0-.4-.36l-.18-.15a3.71,3.71,0,0,0-.41-.28l-.15-.11-80.87-49.07V24.38a6.12,6.12,0,0,0-6.12-6.11H105.76a6.12,6.12,0,0,0-6.12,6.11V128.69L18.77,177.76l-.19.13-.35.24-.22.18-.36.33-.15.15c-.16.17-.32.35-.47.54a7.33,7.33,0,0,0-.4.63l-.06.1c-.09.19-.18.37-.26.56l-.06.14a4.69,4.69,0,0,0-.2.6l0,.09a6.1,6.1,0,0,0-.14.72s0,.08,0,.12a5.85,5.85,0,0,0,0,.59s0,.07,0,.11V487.61s0,.08,0,.11,0,.26,0,.38a1.64,1.64,0,0,0,0,.22c0,.13,0,.27.06.41l0,.17c0,.15.07.29.11.43s0,.1.05.14a3.29,3.29,0,0,0,.16.44l0,.12c.07.14.13.28.21.42l.06.11a4.36,4.36,0,0,0,.24.41l.07.1.12.18.16.2.08.09a3.73,3.73,0,0,0,.32.36l.08.07a2.82,2.82,0,0,0,.36.33l.08.07c.12.1.25.19.38.28l.11.08L19,493l.17.09.35.17.22.09.32.11.26.08.31.08.26.05.35.06.23,0,.41,0H490.05a6.11,6.11,0,0,0,1.2-.12h.05l.48-.12.15-.05a3.75,3.75,0,0,0,.43-.16l.15-.06a3.42,3.42,0,0,0,.43-.21l.1-.05a5.74,5.74,0,0,0,1.29-1l.06-.06c.11-.1.2-.21.3-.32l.15-.18a2.09,2.09,0,0,0,.14-.17l.12-.18.07-.1a4.36,4.36,0,0,0,.24-.41l.06-.1.21-.43,0-.12a3.29,3.29,0,0,0,.16-.44s0-.09.05-.14.08-.28.11-.43l0-.17c0-.14.05-.28.06-.41a1.64,1.64,0,0,0,0-.22c0-.12,0-.25,0-.38s0-.07,0-.11ZM28.06,195.18,217,336,28.06,475.5ZM230.89,341a42.63,42.63,0,0,1,50.23,0L471.46,481.49H40.54ZM295,336,483.94,195.18V475.5Zm184.1-152.5-66.76,49.77V143ZM111.88,30.5H400.12V242.4L284.56,328.55a55.1,55.1,0,0,0-57.11,0l-115.92-86.4a6,6,0,0,0,.35-2V30.5ZM99.64,233.27,32.88,183.51,99.64,143Z"/></svg>