<?xml version="1.0" encoding="utf-8"?>
<!-- Generator: Adobe Illustrator 19.0.0, SVG Export Plug-In . SVG Version: 6.00 Build 0)  -->
<svg version="1.1" id="layer" xmlns="http://www.w3.org/2000/svg" xmlns:xlink="http://www.w3.org/1999/xlink" x="0px" y="0px"
	 viewBox="-153 -46 652 652" style="enable-background:new -153 -46 652 652;" xml:space="preserve">
<style type="text/css">
	.st0{fill:#F8B333;}
</style>
<path class="st0" d="M-67,317.6c-3.9-5-8.4-13.3-10.2-19c-14.7,0-32.6-11.9-32.6-35.4c0-19.8,11.7-35.2,32.6-35.2
	c19.9,0,32.7,16.9,32.7,35.6c0,19.1-11.8,31-20.4,31c0,0,6.5,16.3,20.7,28c6.2,5.1,21.6,16.2,36,19.5l2.6-3.5
	c-18.3-7.3-31.8-18.6-31.8-29c0-6.1,1.6-9.2,4.9-14c6.8-9.7,10-20.7,10-31.5c0-32.2-24.7-56.4-55-56.4c-29.2,0-54.5,24.2-54.5,55.6
	C-132,296-102.9,324.3-67,317.6z M58.6,239.8v69.1H39.1v-8.5h-0.3c-5.5,6.4-13.5,9.6-21.7,9.6c-15.7,0-26.7-7.5-26.7-28.6v-41.6H9.8
	v36.7c0,12.7,4,17,13.2,17c8.5,0,16.1-6.8,16.1-20.1v-33.6H58.6L58.6,239.8z M138.9,239v68h-17.2v-8.2h-0.4
	c-4.6,6-11.5,9.3-20.3,9.3c-18.7,0-32.3-13.9-32.3-35c0-20.6,13.7-35.3,32-35.3c8.1,0,15,2.9,19.8,8.7h0.4v-7.6L138.9,239L138.9,239
	z M121.6,273.2c0-10.9-7.2-19.1-17.1-19.1c-9.7,0-17.5,7.4-17.5,19.1c0,11,7.2,18.5,17.4,18.5C113.8,291.7,121.6,284.4,121.6,273.2z
	 M221.2,267V308H202v-36.3c0-13.2-4.8-17.2-13.7-17.2c-9.6,0-16.2,6.5-16.2,18.8V308h-19.1v-69h19.2v8.9h0.3
	c5.8-6.7,14-10.1,22.8-10.1C210.6,237.9,221.2,245.8,221.2,267z M305.5,207.8v99.2h-17.6v-8.3h-0.4c-4.8,6-12,9.4-21.2,9.4
	c-19.1,0-33.1-14-33.1-35.1c0-20.7,14-35.4,32.5-35.4c8.4,0,15.7,2.9,20.8,8.8h0.4v-38.6L305.5,207.8L305.5,207.8z M287.9,273.1
	c0-10.9-7.6-19.2-18.2-19.2c-9.9,0-17.6,7.4-17.6,19.2c0,11,7.4,18.6,17.6,18.6C279.9,291.7,287.9,284.3,287.9,273.1z M315.5,272.9
	c0-20.3,14.4-35.1,36-35.1c21.2,0,36.2,14.2,36.2,35.1s-15,35.1-36.2,35.1C329.9,308,315.5,293.2,315.5,272.9z M369.2,272.9
	c0-11.1-7.5-18.8-17.7-18.8c-10.6,0-17.7,8.1-17.7,18.8c0,10.6,7.4,18.8,17.7,18.8C361.4,291.7,369.2,283.9,369.2,272.9z
	 M395.8,272.9c0-20.3,14.4-35.1,36-35.1c21.2,0,36.2,14.2,36.2,35.1S453,308,431.8,308C410.2,308,395.8,293.2,395.8,272.9z
	 M449.4,272.9c0-11.1-7.5-18.8-17.7-18.8c-10.6,0-17.7,8.1-17.7,18.8c0,10.6,7.4,18.8,17.7,18.8
	C441.6,291.7,449.4,283.9,449.4,272.9z"/>
</svg>
