<?xml version="1.0" ?><svg viewBox="0 0 399 389.13" xmlns="http://www.w3.org/2000/svg"><defs><style>.cls-1{fill:#231f20;}</style></defs><g data-name="Layer 2" id="Layer_2"><g data-name="Layer 1" id="Layer_1-2"><path class="cls-1" d="M345.57,4.58A22,22,0,0,0,334.14,0c-4.48-.32-8.36,1.25-10.62,4.23l-.24.34L49.83,380.38l-.26.35-.19.39c-1.06,2.25-.24,4.86,2.1,6.63A6,6,0,0,0,56,389.08a4.72,4.72,0,0,0,3-1.73L270.75,125.92a8.15,8.15,0,0,0,.92-1l1.33-1.76,78.62-97.07.26-.31C356.3,19.89,353.53,10.59,345.57,4.58Zm-81.05,115c-.74.26-3.15.11-5.75-1.85-2.8-2.11-3.37-4.51-3.18-5l.1-.28,12.25-16.82a19.86,19.86,0,0,0,4.39,4.56,20.32,20.32,0,0,0,5.48,2.94ZM284.41,95l0,0c-.29.39-3.25.73-6.71-1.88-3.25-2.44-4-5.36-3.63-5.86l12.26-16.87a21.38,21.38,0,0,0,11.15,8.49Zm19.74-24.38c-.56.74-4,.67-7.62-2A10.85,10.85,0,0,1,292.85,64a5,5,0,0,1-.31-2.14L304.66,45.2a22.61,22.61,0,0,0,12.42,9.49ZM324,46.13c-.74,1-4.74.85-8.6-2.06a11.79,11.79,0,0,1-4-5.08c-.39-1.08-.55-2.28-.22-2.72L323,20A22.76,22.76,0,0,0,329,26.56a23.28,23.28,0,0,0,7.78,3.85Zm20.86-25.77-1.05,1.31a1.83,1.83,0,0,1-.39.21,6.52,6.52,0,0,1-2.63.32,12.88,12.88,0,0,1-6.51-2.69c-4.07-3.07-5.36-7-4.76-8.49l.95-1.32.09-.12a3.69,3.69,0,0,1,2.94-.73,13.34,13.34,0,0,1,6.73,2.78C344.46,14.81,345.79,18.91,344.88,20.36Zm49.78,34.88a22,22,0,0,0-9.6-7.7c-4.19-1.61-8.36-1.25-11.39.94l-.33.25L1.89,328l-.35.26-.29.32c-1.69,1.85-1.67,4.58.06,6.95a6,6,0,0,0,3.88,2.59,4.77,4.77,0,0,0,3.43-.76l279-188a9.58,9.58,0,0,0,1.19-.71l1.77-1.29L394.15,77.54l.34-.22C400.44,73,400.51,63.3,394.66,55.24ZM283.5,141.47c-.79,0-3-.82-5-3.45-2.05-2.83-1.89-5.3-1.58-5.68l.18-.23,16.63-12.51a19.47,19.47,0,0,0,2.87,5.65,19.94,19.94,0,0,0,4.37,4.42Zm26.21-17.66h0c-.39.29-3.34-.25-5.89-3.76-2.38-3.29-2.26-6.29-1.74-6.67l16.65-12.53a21.59,21.59,0,0,0,8.18,11.38Zm26-17.53c-.76.55-4.06-.54-6.69-4.17a10.81,10.81,0,0,1-2.17-5.5,4.73,4.73,0,0,1,.33-2.13L343.65,82.1a22.55,22.55,0,0,0,9.1,12.7Zm26.17-17.64c-1,.72-4.78-.57-7.63-4.49a11.9,11.9,0,0,1-2.36-6c-.06-1.15.14-2.35.59-2.66L368.6,63.34a23.42,23.42,0,0,0,10.06,14Zm27.5-18.53-1.41,1a1.16,1.16,0,0,1-.42.08,6.31,6.31,0,0,1-2.61-.46,12.9,12.9,0,0,1-5.44-4.48c-3-4.12-3.08-8.26-2.06-9.52l1.29-1,.12-.08a3.72,3.72,0,0,1,3,.15,13.31,13.31,0,0,1,5.62,4.63C390.6,64.68,390.68,69,389.39,70.11Z"/></g></g></svg>