<svg version="1.1" id="Calque_1" xmlns="http://www.w3.org/2000/svg" x="0" y="0" viewBox="0 0 356 78.4" xml:space="preserve">
  <style>
    .st0{fill:#fff}
  </style>
  <linearGradient id="SVGID_1_" gradientUnits="userSpaceOnUse" x1="-782" y1="-501.309" x2="-782" y2="-502.309">
    <stop offset="0" stop-color="#656565"/>
    <stop offset=".618" stop-color="#1b1b1b"/>
    <stop offset=".629" stop-color="#545454"/>
    <stop offset=".983" stop-color="#3e3e3e"/>
  </linearGradient>
  <path class="st0" d="M0 77.7c2.3-.4 2.7-1.6 2.7-6.3V47.1c0-3-.8-3.7-2.7-4.2h10.5v30.4c0 3.1.7 4 2.7 4.4H0zm21.5-27.6c0-2.8-.7-6.9-5.5-7.1 12.3.2 13.3 7.1 13.3 9.8 0 2.9-1.4 9.4-13.2 9.6 4.3-.3 5.4-4.2 5.4-6.7v-5.6zM40 77.7c3.7-.7 5.4-2.1 7.5-7.1-2 5-1.3 6.5 1.6 7.1H40zm14.6-24.9 4-10.1 12.3 31.4c.9 2.4 2.2 3.2 4.1 3.6H61.4c1.6-.3 2.2-1.1 1.3-3.5l-8.1-21.4zM111.6 69.9c-.8 4.5-5.3 7.9-11.7 8 3.8-.2 5.9-3 5.9-5.2 0-3.1-1.3-5-7.6-8.2-6-2.8-11.3-5.6-11.3-11.9 0-5.8 4.4-9.9 11.1-10-4.2.3-6 3.6-4.8 7.6 2.3 3.8 4.7 5.5 6.9 6.2 5.3 2.7 12.7 6 11.5 13.5zm-24.2-2.5c.3 2.8 2.6 7.5 6.8 8.4-2.3-.3-4.6-.6-6.8 1.5v-9.9zm22.7-14c-.2-2.7-2.3-7.6-7.1-8.7 2.4.4 4.8.8 7.1-1.5v10.2zM150.1 69.9c-.8 4.5-5.3 7.9-11.7 8 3.8-.2 5.9-3 5.9-5.2 0-3.1-1.3-5-7.6-8.2-6-2.8-11.3-5.6-11.3-11.9 0-5.8 4.4-9.9 11.1-10-4.2.3-6 3.6-4.8 7.6 2.3 3.8 4.7 5.5 6.9 6.2 5.3 2.7 12.7 6 11.5 13.5zm-24.2-2.5c.3 2.8 2.6 7.5 6.8 8.4-2.3-.3-4.6-.6-6.8 1.5v-9.9zm22.7-14c-.2-2.7-2.3-7.6-7.1-8.7 2.4.4 4.8.8 7.1-1.5v10.2zM163.6 77.7c2.4-.5 2.7-1.6 2.7-6.1V47.3c0-3.1-.7-3.9-2.7-4.4h13.2c-2.3.5-2.7 1.6-2.7 6.1v24.4c0 3.1.8 4 2.7 4.3h-13.2zM199.6 66.1c0 7.3 3.3 11.6 7.8 11.9-9.1-.3-16.5-7.2-16.5-17.6 0-10.7 7.2-17.7 17.1-17.7-5.3.1-8.3 4.4-8.3 12v11.4zm7.8 11.9h.3-.3zm10.3-23.4c0-7.6-3.7-11.9-8.4-12 9.3.1 17.1 7.1 17.1 17.6 0 10.5-7.1 17.4-16.6 17.7 4.9-.3 7.8-4.6 7.8-11.9V54.6zM209.8 78h-.3.3zM238.3 77.7c3.3-.8 4.7-2.5 4.9-8.3.1 5.8 1.5 7.5 4.9 8.3h-9.8zm6.5-30.3c-2.4-3.1-3.9-4-6.1-4.4h11.7l17.8 24v11.5l-23.4-31.1zm28.2-4.5c-3.3.9-4.8 2.6-4.9 8.4-.2-5.8-1.6-7.4-4.9-8.4h9.8zM282.5 77.7c3.3-.8 4.7-2.5 4.9-8.3.1 5.8 1.5 7.5 4.9 8.3h-9.8zm6.5-30.3c-2.4-3.1-3.9-4-6.1-4.4h11.7l17.8 24v11.5L289 47.4zm28.2-4.5c-3.3.9-4.8 2.6-4.9 8.4-.2-5.8-1.6-7.4-4.9-8.4h9.8zM328.8 77.7c2.5-.5 2.7-2.1 2.7-6.1V46.8c0-2.6-.9-3.4-2.7-3.8h10.4v34.8h-10.4zm16.6-47.2h5.7l-7.2 9.9 1.5-9.9zm4.8 34.1c-.5-3.2-1.6-4-6.1-4.2 4.5-.1 5.6-.9 6.1-4.1v8.3zm-2.8 13.1c5.7-.1 7.7-2.7 8.6-9.2v9.2h-8.6zm8.6-34.8v9.3c-.9-6.6-2.9-9.1-8.6-9.3h8.6zM191.2 23.3 170.7 2.7l-20.6 20.6-1.4-1.4 22-21.9 21.9 21.9z"/>
</svg>
